<svg width="877" height="310" viewBox="0 0 877 310" fill="none" xmlns="http://www.w3.org/2000/svg">
<path d="M344.919 231.816C344.919 233.053 345.026 233.992 345.239 234.632C345.495 235.272 345.965 235.699 346.647 235.912C347.33 236.125 348.375 236.232 349.783 236.232C349.911 236.232 349.975 236.36 349.975 236.616C349.975 236.872 349.911 237 349.783 237C348.717 237 347.522 236.979 346.199 236.936C344.877 236.893 343.405 236.872 341.783 236.872C340.29 236.872 338.861 236.893 337.495 236.936C336.13 236.979 334.914 237 333.847 237C333.719 237 333.655 236.872 333.655 236.616C333.655 236.36 333.719 236.232 333.847 236.232C335.213 236.232 336.258 236.125 336.983 235.912C337.709 235.699 338.178 235.272 338.391 234.632C338.647 233.992 338.775 233.053 338.775 231.816V202.184C338.775 200.947 338.647 200.029 338.391 199.432C338.178 198.792 337.709 198.365 336.983 198.152C336.258 197.896 335.213 197.768 333.847 197.768C333.719 197.768 333.655 197.64 333.655 197.384C333.655 197.128 333.719 197 333.847 197C334.914 197 336.13 197.043 337.495 197.128C338.861 197.171 340.29 197.192 341.783 197.192C343.405 197.192 344.877 197.171 346.199 197.128C347.565 197.043 348.759 197 349.783 197C349.911 197 349.975 197.128 349.975 197.384C349.975 197.64 349.911 197.768 349.783 197.768C348.418 197.768 347.373 197.896 346.647 198.152C345.965 198.408 345.495 198.856 345.239 199.496C345.026 200.136 344.919 201.075 344.919 202.312V231.816ZM372.559 237C372.431 237 372.367 236.872 372.367 236.616C372.367 236.36 372.431 236.232 372.559 236.232C374.009 236.232 374.969 235.933 375.439 235.336C375.908 234.739 376.143 233.565 376.143 231.816V222.216C376.143 219.827 375.695 218.077 374.799 216.968C373.945 215.816 372.58 215.24 370.703 215.24C369.337 215.24 367.929 215.624 366.479 216.392C365.071 217.117 363.897 218.141 362.959 219.464L362.639 218.696C364.303 216.435 366.052 214.685 367.887 213.448C369.764 212.168 371.769 211.528 373.903 211.528C376.292 211.528 378.127 212.253 379.407 213.704C380.687 215.112 381.327 217.032 381.327 219.464V231.816C381.327 233.565 381.561 234.739 382.031 235.336C382.543 235.933 383.524 236.232 384.975 236.232C385.103 236.232 385.167 236.36 385.167 236.616C385.167 236.872 385.103 237 384.975 237C384.164 237 383.225 236.979 382.159 236.936C381.092 236.893 379.961 236.872 378.767 236.872C377.615 236.872 376.484 236.893 375.375 236.936C374.308 236.979 373.369 237 372.559 237ZM355.343 237C355.215 237 355.151 236.872 355.151 236.616C355.151 236.36 355.215 236.232 355.343 236.232C356.793 236.232 357.753 235.933 358.223 235.336C358.692 234.739 358.927 233.565 358.927 231.816V219.592C358.927 218.227 358.777 217.224 358.479 216.584C358.18 215.944 357.647 215.624 356.879 215.624C356.495 215.624 356.025 215.709 355.471 215.88C354.916 216.051 354.319 216.285 353.679 216.584C353.508 216.627 353.359 216.541 353.231 216.328C353.145 216.072 353.167 215.923 353.295 215.88L361.679 211.784C361.892 211.699 362.041 211.656 362.127 211.656C362.553 211.656 362.98 212.147 363.407 213.128C363.876 214.109 364.111 215.539 364.111 217.416V231.816C364.111 233.565 364.345 234.739 364.815 235.336C365.327 235.933 366.308 236.232 367.759 236.232C367.887 236.232 367.951 236.36 367.951 236.616C367.951 236.872 367.887 237 367.759 237C366.948 237 366.009 236.979 364.943 236.936C363.876 236.893 362.745 236.872 361.551 236.872C360.399 236.872 359.268 236.893 358.159 236.936C357.092 236.979 356.153 237 355.343 237ZM398.059 237.768C397.035 237.768 396.011 237.597 394.987 237.256C394.005 236.915 393.173 236.339 392.491 235.528C391.851 234.717 391.531 233.565 391.531 232.072V217.608C391.531 216.669 391.424 215.944 391.211 215.432C391.04 214.92 390.72 214.579 390.251 214.408C389.781 214.195 389.12 214.088 388.267 214.088C388.096 214.088 388.011 213.917 388.011 213.576C388.011 213.235 388.096 213.064 388.267 213.064C390.272 212.979 391.893 212.509 393.131 211.656C394.411 210.76 395.307 209.501 395.819 207.88C395.861 207.709 396.032 207.624 396.331 207.624C396.629 207.624 396.779 207.709 396.779 207.88V229.96C396.779 231.709 397.205 232.968 398.059 233.736C398.955 234.504 400.107 234.888 401.515 234.888C402.539 234.888 403.477 234.696 404.331 234.312C405.227 233.885 405.973 233.437 406.571 232.968C406.699 232.883 406.848 232.947 407.019 233.16C407.189 233.331 407.189 233.48 407.019 233.608C405.44 235.059 403.947 236.125 402.539 236.808C401.173 237.448 399.68 237.768 398.059 237.768ZM405.035 215.496C403.328 215.112 401.664 214.856 400.043 214.728C398.464 214.557 396.757 214.472 394.923 214.472V212.936C396.672 212.936 398.357 212.872 399.979 212.744C401.643 212.616 403.413 212.467 405.291 212.296C405.376 212.296 405.461 212.445 405.547 212.744C405.675 213.043 405.739 213.405 405.739 213.832C405.739 214.216 405.653 214.6 405.483 214.984C405.355 215.368 405.205 215.539 405.035 215.496ZM422.565 237.768C419.835 237.768 417.531 237.192 415.653 236.04C413.776 234.888 412.347 233.373 411.365 231.496C410.384 229.576 409.893 227.549 409.893 225.416C409.893 222.899 410.512 220.616 411.749 218.568C413.029 216.477 414.736 214.813 416.869 213.576C419.045 212.339 421.499 211.72 424.229 211.72C426.747 211.72 428.688 212.296 430.053 213.448C431.419 214.557 432.101 216.093 432.101 218.056C432.101 218.525 432.059 218.931 431.973 219.272C431.888 219.613 431.696 219.784 431.397 219.784H426.085C426.213 217.736 425.936 216.093 425.253 214.856C424.571 213.619 423.461 213 421.925 213C420.005 213 418.469 213.896 417.317 215.688C416.165 217.437 415.589 219.805 415.589 222.792C415.589 225.224 415.973 227.357 416.741 229.192C417.552 230.984 418.683 232.392 420.133 233.416C421.627 234.44 423.397 234.952 425.445 234.952C426.512 234.952 427.621 234.803 428.773 234.504C429.925 234.163 430.992 233.672 431.973 233.032C432.059 232.947 432.165 232.989 432.293 233.16C432.464 233.331 432.507 233.48 432.421 233.608C430.885 235.101 429.307 236.168 427.685 236.808C426.064 237.448 424.357 237.768 422.565 237.768ZM413.733 219.912L413.669 218.824L427.877 218.504V219.784L413.733 219.912ZM444.201 219.656L443.753 218.888C445.375 216.968 446.74 215.496 447.849 214.472C449.001 213.405 449.961 212.68 450.729 212.296C451.497 211.869 452.223 211.656 452.905 211.656C453.801 211.656 454.697 211.976 455.593 212.616C456.532 213.213 457.001 213.981 457.001 214.92C457.001 215.688 456.767 216.328 456.297 216.84C455.828 217.352 455.167 217.608 454.313 217.608C453.545 217.608 452.948 217.395 452.521 216.968C452.095 216.541 451.689 216.136 451.305 215.752C450.921 215.368 450.388 215.176 449.705 215.176C449.364 215.176 449.001 215.283 448.617 215.496C448.233 215.667 447.7 216.072 447.017 216.712C446.335 217.352 445.396 218.333 444.201 219.656ZM436.905 237C436.777 237 436.713 236.872 436.713 236.616C436.713 236.36 436.777 236.232 436.905 236.232C438.356 236.232 439.316 235.933 439.785 235.336C440.255 234.739 440.489 233.565 440.489 231.816V219.592C440.489 218.227 440.34 217.224 440.041 216.584C439.743 215.944 439.209 215.624 438.441 215.624C438.057 215.624 437.588 215.709 437.033 215.88C436.479 216.051 435.881 216.285 435.241 216.584C435.071 216.627 434.921 216.541 434.793 216.328C434.708 216.072 434.729 215.923 434.857 215.88L443.241 211.784C443.455 211.699 443.604 211.656 443.689 211.656C444.116 211.656 444.543 212.147 444.969 213.128C445.439 214.109 445.673 215.539 445.673 217.416V231.816C445.673 232.968 445.844 233.885 446.185 234.568C446.527 235.208 447.124 235.656 447.977 235.912C448.831 236.125 450.025 236.232 451.561 236.232C451.732 236.232 451.817 236.36 451.817 236.616C451.817 236.872 451.732 237 451.561 237C450.452 237 449.172 236.979 447.721 236.936C446.313 236.893 444.777 236.872 443.113 236.872C441.961 236.872 440.831 236.893 439.721 236.936C438.655 236.979 437.716 237 436.905 237ZM460.587 237C460.459 237 460.395 236.872 460.395 236.616C460.395 236.36 460.459 236.232 460.587 236.232C461.995 236.232 462.955 235.933 463.467 235.336C463.979 234.739 464.235 233.565 464.235 231.816V199.112C464.235 197.619 464.107 196.552 463.851 195.912C463.595 195.229 463.104 194.888 462.379 194.888C461.781 194.888 460.907 195.144 459.755 195.656C459.627 195.699 459.499 195.592 459.371 195.336C459.243 195.08 459.221 194.931 459.307 194.888L468.331 190.664C468.416 190.621 468.501 190.6 468.587 190.6C468.757 190.6 468.949 190.685 469.163 190.856C469.376 191.027 469.483 191.176 469.483 191.304V231.816C469.483 233.565 469.717 234.739 470.187 235.336C470.699 235.933 471.68 236.232 473.131 236.232C473.259 236.232 473.323 236.36 473.323 236.616C473.323 236.872 473.259 237 473.131 237C472.32 237 471.36 236.979 470.251 236.936C469.184 236.893 468.053 236.872 466.859 236.872C465.664 236.872 464.512 236.893 463.403 236.936C462.336 236.979 461.397 237 460.587 237ZM490.196 237.832C487.551 237.832 485.268 237.213 483.348 235.976C481.428 234.739 479.935 233.096 478.868 231.048C477.802 228.957 477.268 226.717 477.268 224.328C477.268 222.109 477.695 220.189 478.548 218.568C479.402 216.947 480.511 215.624 481.876 214.6C483.284 213.533 484.799 212.744 486.42 212.232C488.084 211.72 489.706 211.464 491.284 211.464C493.972 211.464 496.276 212.104 498.196 213.384C500.116 214.664 501.567 216.307 502.548 218.312C503.572 220.317 504.084 222.451 504.084 224.712C504.084 227.357 503.444 229.661 502.164 231.624C500.884 233.587 499.199 235.123 497.108 236.232C495.018 237.299 492.714 237.832 490.196 237.832ZM492.116 236.552C493.994 236.552 495.444 235.741 496.468 234.12C497.492 232.456 498.004 230.003 498.004 226.76C498.004 223.816 497.578 221.299 496.724 219.208C495.914 217.117 494.847 215.517 493.524 214.408C492.202 213.299 490.751 212.744 489.172 212.744C487.295 212.744 485.844 213.533 484.82 215.112C483.796 216.648 483.284 218.973 483.284 222.088C483.284 224.904 483.668 227.4 484.436 229.576C485.204 231.752 486.25 233.459 487.572 234.696C488.938 235.933 490.452 236.552 492.116 236.552ZM517.737 255.048C514.623 255.048 512.084 254.344 510.121 252.936C508.159 251.571 507.177 249.779 507.177 247.56C507.177 246.493 507.433 245.384 507.945 244.232C508.5 243.123 509.396 241.928 510.633 240.648C511.913 239.411 513.684 238.088 515.945 236.68L516.585 237.384C515.945 237.853 515.305 238.408 514.665 239.048C514.068 239.688 513.577 240.456 513.193 241.352C512.852 242.291 512.681 243.443 512.681 244.808C512.681 247.496 513.428 249.544 514.921 250.952C516.457 252.36 518.42 253.064 520.809 253.064C522.559 253.064 524.052 252.723 525.289 252.04C526.527 251.4 527.487 250.504 528.169 249.352C528.852 248.2 529.193 246.92 529.193 245.512C529.193 244.189 528.873 243.123 528.233 242.312C527.636 241.544 526.825 240.925 525.801 240.456C524.82 240.029 523.711 239.688 522.473 239.432C521.236 239.176 519.977 238.963 518.697 238.792C517.247 238.579 515.839 238.301 514.473 237.96C513.151 237.661 512.063 237.171 511.209 236.488C510.356 235.763 509.929 234.717 509.929 233.352C509.929 232.157 510.441 230.92 511.465 229.64C512.489 228.36 514.025 227.208 516.073 226.184L516.585 226.632C515.775 227.059 515.156 227.571 514.729 228.168C514.345 228.765 514.153 229.448 514.153 230.216C514.153 231.197 514.516 231.965 515.241 232.52C515.967 233.075 516.927 233.48 518.121 233.736C519.359 233.992 520.617 234.227 521.897 234.44C523.305 234.653 524.713 234.909 526.121 235.208C527.529 235.464 528.809 235.848 529.961 236.36C531.156 236.872 532.095 237.597 532.777 238.536C533.503 239.475 533.865 240.691 533.865 242.184C533.865 243.848 533.439 245.427 532.585 246.92C531.775 248.456 530.623 249.821 529.129 251.016C527.636 252.253 525.908 253.235 523.945 253.96C522.025 254.685 519.956 255.048 517.737 255.048ZM519.081 227.528C516.948 227.528 515.156 227.165 513.705 226.44C512.255 225.672 511.145 224.691 510.377 223.496C509.609 222.259 509.225 221 509.225 219.72C509.225 218.013 509.759 216.584 510.825 215.432C511.892 214.237 513.236 213.341 514.857 212.744C516.521 212.147 518.185 211.848 519.849 211.848C521.94 211.848 523.711 212.211 525.161 212.936C526.612 213.661 527.721 214.6 528.489 215.752C529.257 216.861 529.641 218.099 529.641 219.464C529.641 221.085 529.129 222.493 528.105 223.688C527.124 224.883 525.823 225.821 524.201 226.504C522.623 227.187 520.916 227.528 519.081 227.528ZM520.681 226.44C521.535 226.44 522.324 226.035 523.049 225.224C523.817 224.371 524.201 222.941 524.201 220.936C524.201 218.632 523.561 216.733 522.281 215.24C521.044 213.747 519.593 213 517.929 213C516.905 213 516.095 213.427 515.497 214.28C514.943 215.133 514.665 216.413 514.665 218.12C514.665 219.613 514.921 221 515.433 222.28C515.988 223.517 516.713 224.52 517.609 225.288C518.505 226.056 519.529 226.44 520.681 226.44ZM525.417 216.84L525.481 214.792C526.804 213.811 528.105 213.064 529.385 212.552C530.708 211.997 532.137 211.72 533.673 211.72C533.887 211.72 534.015 211.891 534.057 212.232C534.143 212.531 534.185 212.915 534.185 213.384C534.185 213.939 534.1 214.536 533.929 215.176C533.759 215.816 533.609 216.093 533.481 216.008C532.799 215.709 532.073 215.475 531.305 215.304C530.537 215.091 529.727 214.984 528.873 214.984C528.404 214.984 527.913 215.027 527.401 215.112C526.889 215.155 526.356 215.261 525.801 215.432L525.417 216.84ZM553.941 228.488C553.941 226.739 554.389 225.181 555.285 223.816C556.181 222.408 557.355 221.107 558.805 219.912C560.256 218.717 561.792 217.544 563.413 216.392C565.035 215.197 566.571 213.96 568.021 212.68C569.472 211.4 570.645 209.992 571.541 208.456C572.437 206.92 572.885 205.192 572.885 203.272C572.885 201.352 572.416 199.88 571.477 198.856C570.539 197.789 569.344 197.256 567.893 197.256C566.571 197.256 565.589 197.683 564.949 198.536C564.309 199.389 563.989 200.669 563.989 202.376C563.989 204.68 564.501 207.027 565.525 209.416C566.549 211.805 567.936 214.152 569.685 216.456C571.477 218.76 573.461 220.979 575.637 223.112C577.856 225.203 580.139 227.123 582.485 228.872C585.429 231.048 588.032 232.755 590.293 233.992C592.555 235.187 594.304 235.933 595.541 236.232C595.755 236.275 595.84 236.424 595.797 236.68C595.755 236.893 595.669 237 595.541 237C594.347 237 592.917 237 591.253 237C589.632 237 587.989 237 586.325 237C585.813 237 585.152 236.829 584.341 236.488C583.531 236.147 582.464 235.549 581.141 234.696C579.819 233.8 578.112 232.52 576.021 230.856C574.144 229.32 572.203 227.613 570.197 225.736C568.192 223.816 566.336 221.853 564.629 219.848C562.965 217.8 561.621 215.795 560.597 213.832C560.043 212.723 559.595 211.613 559.253 210.504C558.912 209.395 558.741 208.2 558.741 206.92C558.741 204.787 559.211 202.867 560.149 201.16C561.131 199.453 562.496 198.109 564.245 197.128C565.995 196.147 568.064 195.656 570.453 195.656C571.989 195.656 573.376 195.891 574.613 196.36C575.851 196.829 576.832 197.533 577.557 198.472C578.283 199.368 578.645 200.563 578.645 202.056C578.645 203.805 578.176 205.341 577.237 206.664C576.341 207.987 575.168 209.203 573.717 210.312C572.267 211.421 570.731 212.509 569.109 213.576C567.488 214.643 565.952 215.752 564.501 216.904C563.051 218.013 561.856 219.251 560.917 220.616C560.021 221.981 559.573 223.56 559.573 225.352C559.573 227.016 560.043 228.595 560.981 230.088C561.92 231.539 563.243 232.733 564.949 233.672C566.656 234.611 568.683 235.08 571.029 235.08C572.864 235.08 574.485 234.76 575.893 234.12C577.344 233.437 578.539 232.52 579.477 231.368C580.459 230.173 581.184 228.765 581.653 227.144C582.165 225.48 582.421 223.667 582.421 221.704C582.421 219.613 582.059 218.056 581.333 217.032C580.651 215.965 579.349 215.432 577.429 215.432C577.344 215.432 577.28 215.304 577.237 215.048C577.237 214.792 577.301 214.664 577.429 214.664L592.021 214.6C592.192 214.6 592.277 214.728 592.277 214.984C592.277 215.24 592.192 215.368 592.021 215.368C590.699 215.368 589.696 215.517 589.013 215.816C588.331 216.115 587.84 216.584 587.541 217.224C587.243 217.864 586.923 218.739 586.581 219.848C586.24 221.171 585.771 222.643 585.173 224.264C584.576 225.843 583.808 227.421 582.869 229C581.931 230.579 580.736 232.051 579.285 233.416C577.877 234.739 576.128 235.805 574.037 236.616C571.989 237.384 569.579 237.768 566.805 237.768C563.819 237.768 561.365 237.32 559.445 236.424C557.568 235.528 556.181 234.376 555.285 232.968C554.389 231.517 553.941 230.024 553.941 228.488ZM623.596 198.344C620.994 198.344 618.86 199.155 617.196 200.776C615.575 202.397 614.295 204.787 613.356 207.944C613.356 208.072 613.228 208.136 612.972 208.136C612.759 208.093 612.652 208.029 612.652 207.944C612.738 207.347 612.823 206.536 612.908 205.512C612.994 204.445 613.079 203.293 613.164 202.056C613.292 200.819 613.378 199.624 613.42 198.472C613.506 197.277 613.548 196.317 613.548 195.592C613.548 195.379 613.655 195.272 613.868 195.272C614.124 195.272 614.252 195.379 614.252 195.592C614.252 196.019 614.466 196.339 614.892 196.552C615.362 196.723 615.874 196.851 616.428 196.936C616.983 196.979 617.452 197 617.836 197C621.506 197.128 625.794 197.192 630.7 197.192C633.73 197.192 636.119 197.171 637.868 197.128C639.66 197.043 641.388 197 643.052 197C644.588 197 645.74 196.915 646.508 196.744C647.319 196.531 647.831 196.083 648.044 195.4C648.087 195.229 648.215 195.144 648.428 195.144C648.642 195.144 648.748 195.229 648.748 195.4C648.706 196.083 648.642 197.021 648.556 198.216C648.471 199.368 648.407 200.605 648.364 201.928C648.322 203.208 648.279 204.403 648.236 205.512C648.194 206.579 648.172 207.389 648.172 207.944C648.172 208.029 648.044 208.072 647.788 208.072C647.575 208.072 647.447 208.029 647.404 207.944C646.935 204.573 645.911 202.141 644.332 200.648C642.754 199.112 640.642 198.344 637.996 198.344C636.844 198.344 635.97 198.451 635.372 198.664C634.775 198.877 634.37 199.283 634.156 199.88C633.943 200.435 633.836 201.245 633.836 202.312V231.816C633.836 233.053 633.964 233.992 634.22 234.632C634.519 235.272 635.052 235.699 635.82 235.912C636.631 236.125 637.847 236.232 639.468 236.232C639.596 236.232 639.66 236.36 639.66 236.616C639.66 236.872 639.596 237 639.468 237C638.316 237 636.994 236.979 635.5 236.936C634.05 236.893 632.45 236.872 630.7 236.872C629.036 236.872 627.479 236.893 626.028 236.936C624.578 236.979 623.234 237 621.996 237C621.911 237 621.868 236.872 621.868 236.616C621.868 236.36 621.911 236.232 621.996 236.232C623.618 236.232 624.834 236.125 625.644 235.912C626.455 235.699 626.988 235.272 627.244 234.632C627.543 233.992 627.692 233.053 627.692 231.816V202.184C627.692 201.117 627.586 200.328 627.372 199.816C627.202 199.261 626.818 198.877 626.22 198.664C625.623 198.451 624.748 198.344 623.596 198.344ZM655.764 219.656L655.316 218.888C656.937 216.968 658.302 215.496 659.412 214.472C660.564 213.405 661.524 212.68 662.292 212.296C663.06 211.869 663.785 211.656 664.468 211.656C665.364 211.656 666.26 211.976 667.156 212.616C668.094 213.213 668.564 213.981 668.564 214.92C668.564 215.688 668.329 216.328 667.86 216.84C667.39 217.352 666.729 217.608 665.876 217.608C665.108 217.608 664.51 217.395 664.084 216.968C663.657 216.541 663.252 216.136 662.868 215.752C662.484 215.368 661.95 215.176 661.268 215.176C660.926 215.176 660.564 215.283 660.18 215.496C659.796 215.667 659.262 216.072 658.58 216.712C657.897 217.352 656.958 218.333 655.764 219.656ZM648.468 237C648.34 237 648.276 236.872 648.276 236.616C648.276 236.36 648.34 236.232 648.468 236.232C649.918 236.232 650.878 235.933 651.348 235.336C651.817 234.739 652.052 233.565 652.052 231.816V219.592C652.052 218.227 651.902 217.224 651.604 216.584C651.305 215.944 650.772 215.624 650.004 215.624C649.62 215.624 649.15 215.709 648.596 215.88C648.041 216.051 647.444 216.285 646.804 216.584C646.633 216.627 646.484 216.541 646.356 216.328C646.27 216.072 646.292 215.923 646.42 215.88L654.804 211.784C655.017 211.699 655.166 211.656 655.252 211.656C655.678 211.656 656.105 212.147 656.532 213.128C657.001 214.109 657.236 215.539 657.236 217.416V231.816C657.236 232.968 657.406 233.885 657.748 234.568C658.089 235.208 658.686 235.656 659.54 235.912C660.393 236.125 661.588 236.232 663.124 236.232C663.294 236.232 663.38 236.36 663.38 236.616C663.38 236.872 663.294 237 663.124 237C662.014 237 660.734 236.979 659.284 236.936C657.876 236.893 656.34 236.872 654.676 236.872C653.524 236.872 652.393 236.893 651.284 236.936C650.217 236.979 649.278 237 648.468 237ZM689.194 237.384C689.024 237.469 688.832 237.512 688.618 237.512C687.936 237.512 687.253 237.021 686.57 236.04C685.888 235.059 685.546 233.629 685.546 231.752V220.68C685.546 218.888 685.397 217.437 685.098 216.328C684.842 215.219 684.458 214.408 683.946 213.896C683.434 213.384 682.773 213.128 681.962 213.128C681.194 213.128 680.512 213.341 679.914 213.768C679.36 214.152 678.912 214.707 678.57 215.432C678.272 216.157 678.08 217.075 677.994 218.184C677.909 219.208 677.589 219.997 677.034 220.552C676.522 221.107 675.754 221.384 674.73 221.384C673.792 221.384 673.088 221.171 672.618 220.744C672.192 220.317 671.978 219.741 671.978 219.016C671.978 218.12 672.405 217.245 673.258 216.392C674.112 215.539 675.178 214.771 676.458 214.088C677.738 213.363 679.082 212.787 680.49 212.36C681.898 211.933 683.178 211.72 684.33 211.72C686.122 211.72 687.637 212.296 688.874 213.448C690.112 214.557 690.73 216.328 690.73 218.76V230.088C690.73 231.411 690.944 232.413 691.37 233.096C691.797 233.779 692.416 234.12 693.226 234.12C693.909 234.12 694.677 233.928 695.53 233.544C695.744 233.459 695.893 233.544 695.978 233.8C696.064 234.013 696 234.163 695.786 234.248L689.194 237.384ZM676.074 237.448C674.752 237.448 673.706 237.085 672.938 236.36C672.17 235.635 671.786 234.675 671.786 233.48C671.786 232.072 672.32 231.027 673.386 230.344C674.496 229.661 676.224 228.936 678.57 228.168L686.186 225.608L686.378 226.504L680.938 228.488C679.872 228.915 679.104 229.384 678.634 229.896C678.165 230.365 677.93 230.963 677.93 231.688C677.93 232.584 678.186 233.288 678.698 233.8C679.21 234.312 679.85 234.568 680.618 234.568C681.002 234.568 681.45 234.504 681.962 234.376C682.517 234.248 683.093 234.035 683.69 233.736L687.85 231.56L687.978 232.52L682.41 235.528C681.301 236.125 680.192 236.595 679.082 236.936C678.016 237.277 677.013 237.448 676.074 237.448ZM707.941 237.832C706.149 237.832 704.485 237.341 702.949 236.36C701.413 235.336 700.176 233.907 699.237 232.072C698.341 230.237 697.893 228.019 697.893 225.416C697.893 222.899 698.363 220.765 699.301 219.016C700.24 217.224 701.435 215.773 702.885 214.664C704.379 213.555 705.979 212.744 707.685 212.232C709.392 211.72 711.013 211.464 712.549 211.464C714.085 211.464 715.515 211.677 716.837 212.104C718.16 212.531 719.355 213.085 720.421 213.768L719.205 218.632C718.267 216.797 717.179 215.411 715.941 214.472C714.747 213.491 713.211 213 711.333 213C708.987 213 707.109 213.832 705.701 215.496C704.336 217.117 703.653 219.763 703.653 223.432C703.653 225.864 703.973 227.955 704.613 229.704C705.253 231.411 706.149 232.733 707.301 233.672C708.453 234.568 709.733 235.016 711.141 235.016C712.891 235.016 714.448 234.525 715.813 233.544C717.179 232.563 718.48 231.389 719.717 230.024L720.293 230.536C719.397 231.56 718.331 232.648 717.093 233.8C715.899 234.909 714.533 235.869 712.997 236.68C711.504 237.448 709.819 237.832 707.941 237.832ZM723.109 191.304V229.704C723.109 231.197 723.259 232.264 723.557 232.904C723.856 233.501 724.368 233.8 725.093 233.8C725.435 233.8 725.84 233.736 726.309 233.608C726.821 233.48 727.376 233.288 727.973 233.032C728.101 232.947 728.229 233.032 728.357 233.288C728.485 233.501 728.485 233.651 728.357 233.736L720.165 237.704C720.037 237.747 719.909 237.768 719.781 237.768C719.312 237.768 718.885 237.256 718.501 236.232C718.117 235.208 717.925 233.715 717.925 231.752V199.112C717.925 197.661 717.797 196.595 717.541 195.912C717.285 195.229 716.773 194.888 716.005 194.888C715.664 194.888 715.28 194.973 714.853 195.144C714.427 195.272 713.957 195.443 713.445 195.656C713.275 195.741 713.125 195.656 712.997 195.4C712.869 195.144 712.869 194.995 712.997 194.952L721.957 190.664C722.043 190.621 722.128 190.6 722.213 190.6C722.384 190.6 722.576 190.685 722.789 190.856C723.003 191.027 723.109 191.176 723.109 191.304ZM743.253 237.768C740.522 237.768 738.218 237.192 736.341 236.04C734.463 234.888 733.034 233.373 732.053 231.496C731.071 229.576 730.581 227.549 730.581 225.416C730.581 222.899 731.199 220.616 732.437 218.568C733.717 216.477 735.423 214.813 737.557 213.576C739.733 212.339 742.186 211.72 744.917 211.72C747.434 211.72 749.375 212.296 750.741 213.448C752.106 214.557 752.789 216.093 752.789 218.056C752.789 218.525 752.746 218.931 752.661 219.272C752.575 219.613 752.383 219.784 752.085 219.784H746.773C746.901 217.736 746.623 216.093 745.941 214.856C745.258 213.619 744.149 213 742.613 213C740.693 213 739.157 213.896 738.005 215.688C736.853 217.437 736.277 219.805 736.277 222.792C736.277 225.224 736.661 227.357 737.429 229.192C738.239 230.984 739.37 232.392 740.821 233.416C742.314 234.44 744.085 234.952 746.133 234.952C747.199 234.952 748.309 234.803 749.461 234.504C750.613 234.163 751.679 233.672 752.661 233.032C752.746 232.947 752.853 232.989 752.981 233.16C753.151 233.331 753.194 233.48 753.109 233.608C751.573 235.101 749.994 236.168 748.373 236.808C746.751 237.448 745.045 237.768 743.253 237.768ZM734.421 219.912L734.357 218.824L748.565 218.504V219.784L734.421 219.912Z" fill="white"/>
<path d="M455.198 84.92C451.23 84.92 448.126 86.04 445.886 88.28C443.646 90.456 441.982 93.976 440.894 98.84C440.83 98.968 440.606 99.032 440.222 99.032C439.902 99.032 439.742 98.936 439.742 98.744C439.87 97.912 439.998 96.728 440.126 95.192C440.318 93.656 440.478 91.992 440.606 90.2C440.734 88.408 440.83 86.68 440.894 85.016C441.022 83.352 441.086 81.976 441.086 80.888C441.086 80.568 441.278 80.408 441.662 80.408C442.046 80.408 442.238 80.568 442.238 80.888C442.238 81.528 442.558 82.008 443.198 82.328C443.838 82.584 444.574 82.776 445.406 82.904C446.238 82.968 446.942 83 447.518 83C453.022 83.192 459.454 83.288 466.814 83.288C471.294 83.288 474.878 83.256 477.566 83.192C480.254 83.064 482.846 83 485.342 83C487.518 83 489.182 82.872 490.334 82.616C491.55 82.296 492.318 81.624 492.638 80.6C492.702 80.344 492.894 80.216 493.214 80.216C493.598 80.216 493.79 80.344 493.79 80.6C493.662 81.56 493.534 82.904 493.406 84.632C493.342 86.36 493.246 88.152 493.118 90.008C493.054 91.864 492.99 93.592 492.926 95.192C492.862 96.792 492.83 97.976 492.83 98.744C492.83 98.936 492.638 99.032 492.254 99.032C491.934 99.032 491.774 98.936 491.774 98.744C491.326 93.752 490.046 90.2 487.934 88.088C485.822 85.976 482.686 84.92 478.526 84.92C476.286 84.92 474.59 85.08 473.438 85.4C472.35 85.656 471.614 86.2 471.23 87.032C470.91 87.864 470.75 89.176 470.75 90.968V135.224C470.75 137.08 470.942 138.488 471.326 139.448C471.774 140.408 472.606 141.048 473.822 141.368C475.102 141.688 477.054 141.848 479.678 141.848C479.806 141.848 479.87 142.04 479.87 142.424C479.87 142.808 479.806 143 479.678 143C477.95 143 475.998 142.968 473.822 142.904C471.71 142.84 469.374 142.808 466.814 142.808C464.382 142.808 462.078 142.84 459.902 142.904C457.79 142.968 455.838 143 454.046 143C453.854 143 453.758 142.808 453.758 142.424C453.758 142.04 453.854 141.848 454.046 141.848C456.542 141.848 458.43 141.688 459.71 141.368C461.054 141.048 461.95 140.408 462.398 139.448C462.846 138.488 463.07 137.08 463.07 135.224V90.776C463.07 89.048 462.878 87.768 462.494 86.936C462.11 86.04 461.342 85.496 460.19 85.304C459.038 85.048 457.374 84.92 455.198 84.92ZM512.003 93.752C512.003 96.312 512.643 98.52 513.923 100.376C515.203 102.232 516.867 103.896 518.915 105.368C520.963 106.776 523.139 108.184 525.443 109.592C527.811 111 530.083 112.504 532.259 114.104C534.499 115.704 536.323 117.592 537.731 119.768C539.203 121.88 539.939 124.472 539.939 127.544C539.939 130.68 539.107 133.496 537.443 135.992C535.843 138.488 533.539 140.472 530.531 141.944C527.587 143.416 524.035 144.152 519.875 144.152C518.211 144.152 516.515 143.992 514.787 143.672C513.123 143.416 511.523 143.032 509.987 142.52C508.451 142.008 507.043 141.368 505.763 140.6C505.507 140.408 505.283 140.184 505.091 139.928C504.963 139.672 504.899 139.288 504.899 138.776L503.939 125.048C503.875 124.728 504.003 124.568 504.323 124.568C504.707 124.504 504.931 124.6 504.995 124.856C505.571 126.84 506.339 128.856 507.299 130.904C508.259 132.952 509.411 134.84 510.755 136.568C512.099 138.232 513.699 139.608 515.555 140.696C517.475 141.784 519.683 142.328 522.179 142.328C523.907 142.328 525.571 142.008 527.171 141.368C528.835 140.728 530.179 139.672 531.203 138.2C532.227 136.664 532.739 134.552 532.739 131.864C532.739 128.792 532.067 126.2 530.723 124.088C529.379 121.976 527.651 120.152 525.539 118.616C523.427 117.08 521.187 115.608 518.819 114.2C516.579 112.792 514.403 111.32 512.291 109.784C510.243 108.248 508.579 106.488 507.299 104.504C506.019 102.456 505.379 99.992 505.379 97.112C505.379 93.656 506.275 90.808 508.067 88.568C509.923 86.328 512.259 84.664 515.075 83.576C517.955 82.488 520.899 81.944 523.907 81.944C525.891 81.944 527.907 82.136 529.955 82.52C532.003 82.904 533.859 83.448 535.523 84.152C536.099 84.408 536.483 84.696 536.675 85.016C536.867 85.272 536.963 85.56 536.963 85.88L537.443 97.88C537.443 98.072 537.283 98.2 536.963 98.264C536.643 98.328 536.419 98.232 536.291 97.976C536.099 96.888 535.683 95.544 535.043 93.944C534.403 92.28 533.539 90.68 532.451 89.144C531.363 87.544 529.955 86.232 528.227 85.208C526.563 84.12 524.515 83.576 522.083 83.576C519.843 83.576 517.987 84.056 516.515 85.016C515.043 85.912 513.923 87.128 513.155 88.664C512.387 90.136 512.003 91.832 512.003 93.752ZM565.765 112.184L567.205 109.976H586.981L587.653 112.184H565.765ZM612.709 141.848C613.029 141.848 613.189 142.04 613.189 142.424C613.189 142.808 613.029 143 612.709 143C610.853 143 608.933 142.936 606.949 142.808C605.029 142.68 603.141 142.616 601.285 142.616C599.237 142.616 597.445 142.68 595.909 142.808C594.437 142.936 592.773 143 590.917 143C590.661 143 590.533 142.808 590.533 142.424C590.533 142.04 590.661 141.848 590.917 141.848C594.053 141.848 595.973 141.368 596.677 140.408C597.381 139.384 597.029 137.4 595.621 134.456L574.981 91.544L578.053 86.936L559.333 130.328C557.669 134.232 557.573 137.144 559.045 139.064C560.517 140.92 563.269 141.848 567.301 141.848C567.621 141.848 567.781 142.04 567.781 142.424C567.781 142.808 567.621 143 567.301 143C565.381 143 563.621 142.936 562.021 142.808C560.421 142.68 558.405 142.616 555.973 142.616C553.605 142.616 551.685 142.68 550.213 142.808C548.805 142.936 547.077 143 545.029 143C544.773 143 544.645 142.808 544.645 142.424C544.645 142.04 544.773 141.848 545.029 141.848C546.757 141.848 548.261 141.528 549.541 140.888C550.821 140.184 552.037 138.936 553.189 137.144C554.405 135.352 555.717 132.792 557.125 129.464L577.573 82.328C577.637 82.136 577.861 82.04 578.245 82.04C578.629 81.976 578.853 82.072 578.917 82.328L601.957 129.848C603.493 132.984 604.805 135.448 605.893 137.24C607.045 138.968 608.165 140.184 609.253 140.888C610.341 141.528 611.493 141.848 612.709 141.848Z" fill="white"/>
<circle cx="208.289" cy="155.289" r="86.2692" stroke="white"/>
<circle cx="208" cy="155" r="93.5" stroke="white"/>
<path d="M208.475 70.835L135.981 202.724L208.475 155.575L280.886 202.724L208.475 70.835Z" fill="white" stroke="white"/>
<path d="M135.981 202.723L208.289 163.099L280.886 202.723" stroke="white"/>
<line x1="207.789" y1="242.059" x2="207.789" y2="233.382" stroke="white"/>
<line x1="295.059" y1="155.789" x2="286.382" y2="155.789" stroke="white"/>
<line x1="122.099" y1="154.789" x2="130.776" y2="154.789" stroke="white"/>
<line x1="317.991" y1="245.001" x2="317.991" y2="70.9981" stroke="white"/>
<path d="M207.046 67.168V63.184L207.222 63.2V67.168C207.222 67.44 207.267 67.632 207.358 67.744C207.448 67.8507 207.606 67.904 207.83 67.904C207.846 67.904 207.854 67.92 207.854 67.952C207.854 67.984 207.846 68 207.83 68C207.728 68 207.622 67.9973 207.51 67.992C207.403 67.9867 207.283 67.984 207.15 67.984C207.022 67.984 206.899 67.9867 206.782 67.992C206.664 67.9973 206.552 68 206.446 68C206.435 68 206.43 67.984 206.43 67.952C206.43 67.92 206.435 67.904 206.446 67.904C206.68 67.904 206.838 67.8507 206.918 67.744C207.003 67.632 207.046 67.44 207.046 67.168ZM211.07 68.088C211.07 68.0987 211.056 68.104 211.03 68.104C211.003 68.1093 210.984 68.1093 210.974 68.104L207.358 63.656C207.176 63.4373 207.014 63.2907 206.87 63.216C206.731 63.136 206.598 63.096 206.47 63.096C206.454 63.096 206.446 63.08 206.446 63.048C206.446 63.016 206.454 63 206.47 63C206.56 63 206.654 63.0027 206.75 63.008C206.846 63.0133 206.931 63.016 207.006 63.016C207.08 63.016 207.15 63.0133 207.214 63.008C207.283 63.0027 207.334 63 207.366 63C207.435 63 207.483 63.032 207.51 63.096C207.536 63.1547 207.611 63.2613 207.734 63.416L211.006 67.48L211.07 68.088ZM211.07 63.84V68.088L210.894 67.84V63.84C210.894 63.568 210.851 63.376 210.766 63.264C210.68 63.152 210.526 63.096 210.302 63.096C210.291 63.096 210.286 63.08 210.286 63.048C210.286 63.016 210.291 63 210.302 63C210.408 63 210.515 63.0053 210.622 63.016C210.734 63.0213 210.856 63.024 210.99 63.024C211.112 63.024 211.235 63.0213 211.358 63.016C211.48 63.0053 211.592 63 211.694 63C211.71 63 211.718 63.016 211.718 63.048C211.718 63.08 211.71 63.096 211.694 63.096C211.464 63.096 211.302 63.152 211.206 63.264C211.115 63.376 211.07 63.568 211.07 63.84Z" fill="white"/>
<path d="M299.023 158H295.719C295.709 158 295.703 157.984 295.703 157.952C295.703 157.92 295.709 157.904 295.719 157.904C295.922 157.904 296.074 157.891 296.175 157.864C296.277 157.837 296.343 157.784 296.375 157.704C296.413 157.624 296.431 157.507 296.431 157.352V153.648C296.431 153.493 296.413 153.379 296.375 153.304C296.343 153.224 296.277 153.171 296.175 153.144C296.074 153.112 295.922 153.096 295.719 153.096C295.709 153.096 295.703 153.08 295.703 153.048C295.703 153.016 295.709 153 295.719 153H298.887C298.935 153 298.959 153.024 298.959 153.072L298.975 154.04C298.975 154.056 298.959 154.064 298.927 154.064C298.901 154.064 298.887 154.056 298.887 154.04C298.887 153.763 298.815 153.547 298.671 153.392C298.527 153.232 298.338 153.152 298.103 153.152H297.551C297.354 153.152 297.205 153.165 297.103 153.192C297.007 153.219 296.941 153.272 296.903 153.352C296.871 153.427 296.855 153.541 296.855 153.696V157.32C296.855 157.469 296.871 157.581 296.903 157.656C296.941 157.731 297.007 157.781 297.103 157.808C297.205 157.835 297.354 157.848 297.551 157.848H298.287C298.501 157.848 298.685 157.755 298.839 157.568C298.994 157.381 299.09 157.136 299.127 156.832C299.127 156.816 299.143 156.811 299.175 156.816C299.207 156.816 299.223 156.824 299.223 156.84C299.202 156.979 299.183 157.147 299.167 157.344C299.157 157.536 299.151 157.715 299.151 157.88C299.151 157.96 299.109 158 299.023 158ZM298.575 156.12C298.575 155.88 298.525 155.712 298.423 155.616C298.322 155.52 298.143 155.472 297.887 155.472H296.655V155.32H297.911C298.157 155.32 298.327 155.28 298.423 155.2C298.519 155.115 298.567 154.971 298.567 154.768C298.567 154.757 298.583 154.752 298.615 154.752C298.647 154.752 298.663 154.757 298.663 154.768C298.663 154.923 298.661 155.043 298.655 155.128C298.655 155.213 298.655 155.304 298.655 155.4C298.655 155.517 298.658 155.635 298.663 155.752C298.669 155.864 298.671 155.987 298.671 156.12C298.671 156.131 298.655 156.136 298.623 156.136C298.591 156.136 298.575 156.131 298.575 156.12Z" fill="white"/>
<path d="M207.163 243.968C207.163 244.192 207.216 244.384 207.323 244.544C207.435 244.699 207.576 244.835 207.747 244.952C207.923 245.069 208.107 245.184 208.299 245.296C208.496 245.408 208.685 245.528 208.867 245.656C209.048 245.779 209.197 245.928 209.315 246.104C209.437 246.275 209.499 246.488 209.499 246.744C209.499 246.989 209.437 247.216 209.315 247.424C209.197 247.627 209.019 247.789 208.779 247.912C208.539 248.035 208.237 248.096 207.875 248.096C207.757 248.096 207.64 248.088 207.523 248.072C207.411 248.056 207.293 248.029 207.171 247.992C207.053 247.949 206.925 247.893 206.787 247.824C206.76 247.808 206.741 247.789 206.731 247.768C206.725 247.741 206.72 247.709 206.715 247.672L206.595 246.632C206.589 246.605 206.6 246.592 206.627 246.592C206.659 246.587 206.677 246.595 206.683 246.616C206.704 246.776 206.747 246.936 206.811 247.096C206.875 247.256 206.96 247.403 207.067 247.536C207.179 247.669 207.315 247.779 207.475 247.864C207.64 247.944 207.832 247.984 208.051 247.984C208.216 247.984 208.376 247.955 208.531 247.896C208.685 247.832 208.811 247.731 208.907 247.592C209.008 247.453 209.059 247.264 209.059 247.024C209.059 246.763 209 246.547 208.883 246.376C208.771 246.2 208.627 246.051 208.451 245.928C208.275 245.8 208.088 245.68 207.891 245.568C207.704 245.456 207.523 245.339 207.347 245.216C207.171 245.093 207.027 244.949 206.915 244.784C206.808 244.613 206.755 244.403 206.755 244.152C206.755 243.875 206.824 243.645 206.963 243.464C207.101 243.277 207.28 243.139 207.499 243.048C207.723 242.957 207.955 242.912 208.195 242.912C208.333 242.912 208.477 242.928 208.627 242.96C208.781 242.987 208.941 243.035 209.107 243.104C209.149 243.12 209.179 243.141 209.195 243.168C209.216 243.189 209.227 243.213 209.227 243.24L209.299 244.088C209.299 244.109 209.283 244.12 209.251 244.12C209.224 244.12 209.208 244.109 209.203 244.088C209.192 243.971 209.163 243.851 209.115 243.728C209.072 243.6 209.005 243.483 208.915 243.376C208.829 243.269 208.717 243.184 208.579 243.12C208.445 243.051 208.283 243.016 208.091 243.016C207.861 243.016 207.677 243.064 207.539 243.16C207.405 243.256 207.309 243.376 207.251 243.52C207.192 243.664 207.163 243.813 207.163 243.968Z" fill="white"/>
<path d="M118.138 155.4L117.09 157.992C117.084 158.013 117.055 158.024 117.002 158.024C116.954 158.024 116.924 158.013 116.914 157.992L114.938 153.664C114.879 153.525 114.815 153.416 114.746 153.336C114.682 153.251 114.61 153.189 114.53 153.152C114.45 153.115 114.354 153.096 114.242 153.096C114.226 153.096 114.218 153.08 114.218 153.048C114.218 153.016 114.226 153 114.242 153C114.316 153 114.391 153.003 114.466 153.008C114.546 153.013 114.623 153.019 114.698 153.024C114.778 153.024 114.852 153.024 114.922 153.024C115.05 153.024 115.167 153.024 115.274 153.024C115.38 153.019 115.476 153.013 115.562 153.008C115.652 153.003 115.738 153 115.818 153C115.834 153 115.842 153.016 115.842 153.048C115.842 153.08 115.834 153.096 115.818 153.096C115.615 153.096 115.468 153.131 115.378 153.2C115.292 153.264 115.292 153.392 115.378 153.584L117.218 157.552L116.946 157.896L118.026 155.24L118.138 155.4ZM121.77 153C121.786 153 121.794 153.016 121.794 153.048C121.794 153.08 121.786 153.096 121.77 153.096C121.604 153.096 121.458 153.131 121.33 153.2C121.207 153.269 121.098 153.419 121.002 153.648L119.242 157.992C119.236 158.013 119.207 158.024 119.154 158.024C119.106 158.024 119.076 158.013 119.066 157.992L117.09 153.664C116.999 153.456 116.903 153.309 116.802 153.224C116.7 153.139 116.564 153.096 116.394 153.096C116.378 153.096 116.37 153.08 116.37 153.048C116.37 153.016 116.378 153 116.394 153C116.468 153 116.543 153.003 116.618 153.008C116.698 153.013 116.775 153.019 116.85 153.024C116.93 153.024 117.004 153.024 117.074 153.024C117.212 153.024 117.33 153.021 117.426 153.016C117.522 153.005 117.61 153 117.69 153C117.706 153 117.714 153.016 117.714 153.048C117.714 153.08 117.706 153.096 117.69 153.096C117.519 153.096 117.423 153.123 117.402 153.176C117.386 153.229 117.428 153.365 117.53 153.584L119.37 157.552L119.098 157.896L120.842 153.6C120.916 153.413 120.911 153.283 120.826 153.208C120.746 153.133 120.556 153.096 120.258 153.096C120.242 153.096 120.234 153.08 120.234 153.048C120.234 153.016 120.242 153 120.258 153C120.38 153 120.498 153.005 120.61 153.016C120.727 153.021 120.876 153.024 121.058 153.024C121.212 153.024 121.335 153.021 121.426 153.016C121.522 153.005 121.636 153 121.77 153ZM118.058 155.24L118.722 153.6C118.796 153.413 118.81 153.283 118.762 153.208C118.719 153.133 118.602 153.096 118.41 153.096C118.399 153.096 118.394 153.08 118.394 153.048C118.394 153.016 118.399 153 118.41 153C118.468 153 118.522 153.003 118.57 153.008C118.623 153.013 118.679 153.019 118.738 153.024C118.796 153.024 118.863 153.024 118.938 153.024C119.087 153.024 119.21 153.021 119.306 153.016C119.402 153.005 119.516 153 119.65 153C119.66 153 119.666 153.016 119.666 153.048C119.666 153.08 119.66 153.096 119.65 153.096C119.484 153.096 119.338 153.131 119.21 153.2C119.082 153.269 118.972 153.419 118.882 153.648L118.17 155.4L118.058 155.24Z" fill="white"/>
</svg>
