<svg width="325" height="326" viewBox="0 0 325 326" fill="none" xmlns="http://www.w3.org/2000/svg">
<circle cx="163" cy="163" r="149.5" stroke="black"/>
<circle cx="162.5" cy="162.5" r="162" stroke="black"/>
<path d="M163.321 17L38 245L163.321 163.491L288.5 245L163.321 17Z" fill="black" stroke="black"/>
<path d="M164.83 316.455C164.778 316.023 164.571 315.688 164.207 315.449C163.844 315.21 163.398 315.091 162.869 315.091C162.483 315.091 162.145 315.153 161.855 315.278C161.568 315.403 161.344 315.575 161.182 315.794C161.023 316.013 160.943 316.261 160.943 316.54C160.943 316.773 160.999 316.973 161.109 317.141C161.223 317.305 161.368 317.443 161.544 317.554C161.72 317.662 161.905 317.751 162.098 317.822C162.291 317.891 162.469 317.946 162.631 317.989L163.517 318.227C163.744 318.287 163.997 318.369 164.276 318.474C164.557 318.58 164.825 318.723 165.081 318.905C165.339 319.084 165.553 319.314 165.72 319.595C165.888 319.876 165.972 320.222 165.972 320.631C165.972 321.102 165.848 321.528 165.601 321.909C165.357 322.29 164.999 322.592 164.527 322.817C164.058 323.041 163.489 323.153 162.818 323.153C162.193 323.153 161.652 323.053 161.195 322.851C160.74 322.649 160.382 322.368 160.121 322.007C159.862 321.646 159.716 321.227 159.682 320.75H160.773C160.801 321.08 160.912 321.352 161.105 321.568C161.301 321.781 161.548 321.94 161.847 322.045C162.148 322.148 162.472 322.199 162.818 322.199C163.222 322.199 163.584 322.134 163.905 322.003C164.226 321.869 164.48 321.685 164.668 321.449C164.855 321.21 164.949 320.932 164.949 320.614C164.949 320.324 164.868 320.088 164.706 319.906C164.544 319.724 164.331 319.577 164.067 319.463C163.803 319.349 163.517 319.25 163.21 319.165L162.136 318.858C161.455 318.662 160.915 318.382 160.517 318.018C160.119 317.655 159.92 317.179 159.92 316.591C159.92 316.102 160.053 315.676 160.317 315.312C160.584 314.946 160.942 314.662 161.391 314.46C161.842 314.256 162.347 314.153 162.903 314.153C163.466 314.153 163.966 314.254 164.403 314.456C164.841 314.655 165.188 314.928 165.443 315.274C165.702 315.621 165.838 316.014 165.852 316.455H164.83Z" fill="black"/>
<path d="M316.057 167V158.273H321.324V159.21H317.114V162.159H321.051V163.097H317.114V166.062H321.392V167H316.057Z" fill="black"/>
<path d="M3.64205 168L1.25568 159.273H2.32955L4.15341 166.381H4.23864L6.09659 159.273H7.28977L9.14773 166.381H9.23295L11.0568 159.273H12.1307L9.74432 168H8.65341L6.72727 161.045H6.65909L4.73295 168H3.64205Z" fill="black"/>
<path d="M165.977 3.27273V12H164.955L160.199 5.14773H160.114V12H159.057V3.27273H160.08L164.852 10.142H164.938V3.27273H165.977Z" fill="black"/>
<path d="M38 245L163 176.5L288.5 245" stroke="black"/>
<line x1="162.5" y1="313" x2="162.5" y2="298" stroke="black"/>
<line x1="313" y1="163.5" x2="298" y2="163.5" stroke="black"/>
<line x1="14" y1="162.5" x2="29" y2="162.5" stroke="black"/>
</svg>
