<?xml version="1.0" encoding="utf-8"?>
<!-- Generator: Adobe Illustrator 19.1.0, SVG Export Plug-In . SVG Version: 6.00 Build 0)  -->
<svg version="1.1" id="Layer_1" xmlns="http://www.w3.org/2000/svg" xmlns:xlink="http://www.w3.org/1999/xlink" x="0px" y="0px"
	 viewBox="0 0 250 150" enable-background="new 0 0 250 150" xml:space="preserve">
<g>
	<path fill-rule="evenodd" clip-rule="evenodd" fill="#2E3192" d="M175.2,90.8l0.1-0.2L175.2,90.8L175.2,90.8z M154,107.2
		c-7.3,0-2.5-16.2-1.3-19.8c1.4-3.9,5.1-11.9,8.3-14.3c3.7-2.7,7.7-2.7,12.1-2.1c1,0.1,5.2,1,6.1,1.5l-1.5,7.7l-2.5,5
		c-0.8,1.6-3.3,5.6-4.3,7l-4.9,6.2l-4.5,4.9C159.9,104.9,156.2,107.2,154,107.2L154,107.2z M175.2,90.8c0,0.7-1,5.6-1.2,6.7
		c-0.4,2.2-0.8,4.4-1.3,6.7c-0.9,4.5,0.3,9.8,5.6,9.8c5.1,0,9.7-3.2,12.9-5.9c1.1-1,1.5-1.4,2.6-2.5c0.4-0.4,1.6-1.9,1.8-2.3
		c0.1-0.3,0.5-3.1,0.5-3.5l-2.6,2.8c0,0,0,0,0,0.1c-0.1,0.1,0,0-0.2,0.2c-1.5,1.3-2.7,2.6-4.5,3.8c-1.5,1-4.7,3.3-6.6,2.1
		c-2-1.2-0.8-5.9-0.4-7.6c0.2-1.2,0.6-2.6,0.8-3.9c1.3-6.5,2.8-13,4.1-19.5l2.5-11.8c-1.3,0-2.6-0.2-3.4-0.2
		c-4.9-0.2-10.1-0.5-15,0.3c-2.8,0.5-5.2,1.1-7.5,2.1c-1.8,0.8-3.9,1.9-5.4,3.1l-2,1.6c-2,1.5-4.6,4.1-6.2,6
		c-4.1,5.1-6.6,9.8-8.1,16.2c-1.1,4.8-1.4,11.6,1.9,15.9c3.7,4.9,9.3,3,13.7,0.4c1.2-0.7,2.3-1.6,3.4-2.5c0.3-0.2,0.4-0.4,0.7-0.6
		c1.4-1.2,2.4-2.2,3.7-3.5l2.3-2.5c2.2-2.6,5.7-7.6,7.4-10.8C174.9,91.1,174.9,91,175.2,90.8L175.2,90.8z"/>
	<path fill-rule="evenodd" clip-rule="evenodd" fill="#2E3192" d="M59.9,55.8l-7.7-0.1v-4.5l8.6-0.1c0-0.8,0.3-1.9,0.5-2.6
		c1.3-6.6,1.2-10.8,5.5-16.2c3.2-3.9,8.6-5.2,13.5-3.8c0.9,0.3,1.5,0.5,2.2,0.9l2.1,1l6.6-6.6c-0.6,0-1.7-0.3-2.3-0.3
		c-7.7-0.4-14.6,0.2-21.4,4.3c-7.7,4.6-13.2,13.1-15.1,21.8c-0.4,1.9-0.2,1.5-1,1.4l-10.6,0c-0.6,0-0.6,0.1-0.6,0.7l0,4.1h11
		c0,0.6-0.7,4.3-0.9,5.3c-0.3,1.7-0.6,3.4-0.9,5.2c-1.3,6.8-2.4,14.3-3.7,21.1c-0.3,1.8-0.6,3.5-0.9,5.2c-0.3,1.8-0.6,3.5-1,5.3
		c-1.7,9.3-2.7,22.4-13.4,23.7c-4.3,0.5-7.2-0.6-10.7-1.4l-1.3,1.6c-0.5,0.6-1,1-1.4,1.6l-2.4,2.8c-0.3,0.4-0.4,0.4-0.5,0.9
		c5.6,0,11.2,0.7,16.5-1.3c0.4-0.2,0.8-0.3,1.3-0.5c2.7-1.1,4.7-2.4,6.9-4.2l1.8-1.7c0.5-0.7,1.6-1.8,2.6-3c0.6-0.7,1-1.4,1.5-2.2
		c0.5-0.7,0.9-1.4,1.3-2.3c4-7.2,6.5-16.9,8.1-25c0.4-2,0.9-4.2,1.2-6.2c1-6.1,2.4-12.6,3.5-18.6L59.9,55.8L59.9,55.8z"/>
	<path fill-rule="evenodd" clip-rule="evenodd" fill="#F37032" d="M59.9,55.8l176.8,0l1.9-4.7l-32.4,0l-1.6,0.1
		c-1.4-0.2-71.6,0-72,0c-22.5,0-44.9,0-67.4,0c-1.3,0-3.5,0.1-4.4,0l-8.6,0.1v4.5L59.9,55.8L59.9,55.8z"/>
	<path fill-rule="evenodd" clip-rule="evenodd" fill="#F37032" d="M207.4,69.8c1.4,0,3-0.1,4.1,1c1.9,1.9,0.7,5.6,0.3,7.9
		c-0.3,1.6-0.6,3-0.9,4.6l-2.6,13.8c-0.5,2.5-2.5,12.2-2.5,14c0,2.6,0.2,5.4,2,7.3c1.8,1.8,3.2,2.4,6,2.4c3.8,0,8.3-2.4,11.3-4.4
		l6.6-5.2c0.2-0.4,0.1-3.2,0.1-3.9c-0.5,0.1-1,1-1.7,1.5c-2.1,1.6-2.8,2.6-5.5,4.2c-1.6,1-5.2,2.7-6.8,0.7c-1.5-1.8-0.7-5.2-0.3-7.3
		l9.5-46.7c-0.6,0.3-1.5,0.5-2.2,0.7c-3.6,1.2-7.6,2.3-11.2,3.5l-11.2,3.5c-1.2,0.3-1.9,0.4-2,1.1c-0.3,3.4-0.4,3,0.8,2.7
		c0.4-0.1,0.8-0.2,1.2-0.3C203.4,70.6,206.5,69.8,207.4,69.8L207.4,69.8z"/>
	<path fill-rule="evenodd" clip-rule="evenodd" fill="#2E3192" d="M107.5,79c0,3.8,1.2,6.3,3.4,8.5l6.4,7.2c1,1.3,2,1.9,3,3.9
		c2.2,4.4,1.1,9.2-4.2,10.4c-1.2,0.3-2.1,0.2-3.3,0.2c-1.8,0-4.2-0.9-5.8-1.5c-2.5-1-2.8-1.4-4.9-2.5c-0.4,0.6-3,3.1-3.6,3.7
		l-2.2,2.3c1,0.5,4.5,1.6,5.5,1.8c7.2,1.5,14.2,1.1,20.2-3.1c1.4-1,3.3-2.8,4.1-4.3c0.6-1,1-1.6,1.4-2.8c1.3-3.8,0.5-7.8-1.9-10.8
		l-7.4-9c-0.9-1.1-2.2-2.5-2.8-3.7c-0.8-1.6-1.4-3-1.2-5.2c0.4-3.6,4.4-5.6,7.5-5.6c1.4,0,2.5,0,3.9,0.5c2,0.7,4.2,2.3,4.2,4.8
		c0,1.8-0.1,1.4-0.2,2.5h2.8c0.3-0.5,1-3.9,1.2-4.7l1.1-4.9c-1-0.2-1.8-0.8-4.2-1.2c-4.8-0.8-9.2-0.4-13.7,1.5
		c-1.6,0.7-3.7,1.9-4.9,3.2l-1,1C109.1,73.3,107.5,75.6,107.5,79L107.5,79z"/>
	<path fill-rule="evenodd" clip-rule="evenodd" fill="#2E3192" d="M67.9,79.3c0,2.4,0.9,5.1,2.3,6.9l5.4,6.1
		c0.2,0.3,0.3,0.3,0.5,0.6l2.7,3.1c1.2,1.2,2.9,4.1,2.9,6.4c0,2.2-0.6,4-2.2,5.2c-4.2,3.2-10.3,1.1-14.4-1c-0.5-0.2-0.8-0.4-1.3-0.7
		c-0.4-0.2-0.9-0.6-1.3-0.7l-4.3,4.4c-0.6,0.8-1.3,1.1-1.4,1.6c0.5,0.1,0.9,0.3,1.3,0.4c0.5,0.2,0.9,0.3,1.3,0.4
		c7.3,2.4,16.9,2.3,23-2.2c1.6-1.2,2.9-2.4,4-4c3-4.5,2.8-9.8-0.5-14.1l-9.4-11.5c-0.4-0.5-0.6-0.8-0.9-1.5c-0.7-1.5-1-2.3-1-4.1
		c0-8.2,15.7-8.7,15.7-0.6c0,0.8-0.2,1.2-0.2,1.9c3.2,0,2.8,0.3,3.1-1c0.1-0.4,0.2-0.8,0.3-1.2c0.3-1.1,1.5-6.8,1.7-7.3
		c-2.3-1.2-6-1.7-9.1-1.7c-5,0-10.8,2.3-13.4,4.9c-0.4,0.4-0.7,0.5-1.1,0.9c-0.2,0.2-0.2,0.3-0.4,0.6c-1.6,1.8-2.7,3.5-3.1,6.1
		C68,77.9,67.9,78.8,67.9,79.3L67.9,79.3z"/>
	<path fill-rule="evenodd" clip-rule="evenodd" fill="#008E3C" d="M213.4,47c-0.6,0.9-2.5,1.9-3.7,2.3c-0.9,0.3-2.6,0.7-3.7,0.8
		c-0.6,0-1,0.1-1.5,0.1c0,0.5,0,0.5,0.1,0.8l1.6-0.1c0.3-0.1,3.8-0.2,6.6-2.3c1.8-1.3,0.4-0.9,2.5-1.1c0.7-0.1,1-0.1,1.6-0.2
		c9.3-1.9,13-14,13.1-22.6l0.2-3.4c0.1-0.9,0-2.6,0-3.6h-0.2c-0.1,1.5-2.9,5.7-3.8,7C220.3,31.3,211.4,37.6,213.4,47L213.4,47z"/>
	<path fill-rule="evenodd" clip-rule="evenodd" fill="#A34B31" d="M212.8,44L212.8,44L212.8,44z"/>
	<path fill-rule="evenodd" clip-rule="evenodd" fill="#7F4007" d="M207.3,39.6c2.3,0,4.1,1.9,4.1,4.1c0,2.3-1.9,4.1-4.1,4.1
		c-2.3,0-4.1-1.9-4.1-4.1C203.1,41.5,205,39.6,207.3,39.6L207.3,39.6z"/>
	<path fill-rule="evenodd" clip-rule="evenodd" fill="#008E3C" d="M223.4,124.2l-2.3,4.5H14v-0.8c10.8,0.7,17.9-0.7,22.5-3.7
		L223.4,124.2L223.4,124.2z"/>
</g>
</svg>
