<svg width="1655" height="455" viewBox="0 0 1655 455" fill="none" xmlns="http://www.w3.org/2000/svg">
<rect width="1655" height="455" fill="white"/>
<path d="M440.73 227.612C440.73 328.848 358.301 410.92 256.614 410.92C154.928 410.92 72.499 328.848 72.499 227.612C72.499 126.376 154.928 44.3047 256.614 44.3047C358.301 44.3047 440.73 126.376 440.73 227.612Z" stroke="black"/>
<path d="M455.5 227.001C455.5 336.696 366.183 425.625 256 425.625C145.817 425.625 56.5 336.696 56.5 227.001C56.5 117.305 145.817 28.376 256 28.376C366.183 28.376 455.5 117.305 455.5 227.001Z" stroke="black"/>
<path d="M257.011 48.71L102.77 328.097L257.011 228.218L411.077 328.097L257.011 48.71Z" fill="black" stroke="black"/>
<path d="M102.769 328.095L256.615 244.156L411.076 328.095" stroke="black"/>
<line x1="256.115" y1="411.422" x2="256.115" y2="393.041" stroke="black"/>
<line x1="441.231" y1="228.113" x2="422.77" y2="228.113" stroke="black"/>
<line x1="73" y1="227.496" x2="91.4615" y2="227.496" stroke="black"/>
<path d="M509.5 27.877L510.5 426.127" stroke="black" stroke-width="2"/>
<path d="M938.792 94.8068C929.905 94.8068 922.954 97.3152 917.937 102.332C912.92 107.205 909.194 115.089 906.757 125.982C906.614 126.268 906.112 126.412 905.252 126.412C904.535 126.412 904.177 126.197 904.177 125.767C904.75 121.753 905.395 115.232 906.112 106.202C906.829 97.1718 907.187 90.3635 907.187 85.7768C907.187 85.0602 907.617 84.7018 908.477 84.7018C909.337 84.7018 909.767 85.0602 909.767 85.7768C909.767 88.9302 913.709 90.5068 921.592 90.5068C933.919 90.9368 948.324 91.1518 964.807 91.1518C973.264 91.1518 982.222 91.0085 991.682 90.7218L1006.3 90.5068C1011.61 90.5068 1015.48 90.1485 1017.91 89.4318C1020.35 88.7152 1021.93 87.2818 1022.64 85.1318C1022.79 84.5585 1023.22 84.2718 1023.93 84.2718C1024.79 84.2718 1025.22 84.5585 1025.22 85.1318C1024.79 89.1452 1024.29 95.5952 1023.72 104.482C1023.29 113.368 1023.07 120.463 1023.07 125.767C1023.07 126.197 1022.64 126.412 1021.78 126.412C1021.07 126.412 1020.71 126.197 1020.71 125.767C1019.7 114.73 1016.84 106.847 1012.11 102.117C1007.38 97.2435 1000.35 94.8068 991.037 94.8068C985.734 94.8068 981.935 95.1652 979.642 95.8818C977.349 96.4552 975.772 97.6735 974.912 99.5368C974.052 101.257 973.622 104.195 973.622 108.352V207.467C973.622 211.91 974.052 215.135 974.912 217.142C975.915 219.149 977.779 220.51 980.502 221.227C983.225 221.944 987.597 222.302 993.617 222.302C993.904 222.302 994.047 222.732 994.047 223.592C994.047 224.452 993.904 224.882 993.617 224.882C988.6 224.882 984.659 224.81 981.792 224.667L964.807 224.452L948.252 224.667C945.385 224.81 941.372 224.882 936.212 224.882C935.782 224.882 935.567 224.452 935.567 223.592C935.567 222.732 935.782 222.302 936.212 222.302C942.089 222.302 946.389 221.944 949.112 221.227C951.979 220.51 953.914 219.149 954.917 217.142C955.92 214.992 956.422 211.767 956.422 207.467V107.922C956.422 103.908 955.992 101.042 955.132 99.3218C954.272 97.4585 952.624 96.2402 950.187 95.6668C947.894 95.0935 944.095 94.8068 938.792 94.8068ZM1066.01 114.587C1066.01 120.033 1067.37 124.835 1070.1 128.992C1072.82 133.005 1076.12 136.517 1079.99 139.527C1083.86 142.394 1089.23 145.905 1096.11 150.062C1103.28 154.505 1108.94 158.375 1113.1 161.672C1117.4 164.825 1121.05 168.767 1124.06 173.497C1127.07 178.227 1128.58 183.817 1128.58 190.267C1128.58 197.29 1126.71 203.669 1122.99 209.402C1119.4 214.992 1114.17 219.435 1107.29 222.732C1100.55 225.885 1092.67 227.462 1083.64 227.462C1077.91 227.462 1072.25 226.745 1066.66 225.312C1061.07 224.022 1056.19 222.087 1052.04 219.507C1051.32 219.077 1050.82 218.575 1050.53 218.002C1050.24 217.429 1050.1 216.569 1050.1 215.422L1047.95 184.677C1047.81 184.104 1048.09 183.745 1048.81 183.602C1049.67 183.459 1050.17 183.674 1050.32 184.247C1053.76 195.14 1058.56 204.385 1064.72 211.982C1070.88 219.579 1078.91 223.377 1088.8 223.377C1095.54 223.377 1101.2 221.585 1105.79 218.002C1110.37 214.275 1112.67 208.255 1112.67 199.942C1112.67 193.635 1111.23 188.117 1108.37 183.387C1105.5 178.657 1101.99 174.715 1097.83 171.562C1093.67 168.265 1088.16 164.538 1081.28 160.382C1074.54 156.082 1069.16 152.427 1065.15 149.417C1061.28 146.263 1057.98 142.465 1055.26 138.022C1052.54 133.435 1051.18 128.132 1051.18 122.112C1051.18 114.802 1053.11 108.567 1056.98 103.407C1060.99 98.2468 1066.15 94.4485 1072.46 92.0118C1078.91 89.4318 1085.65 88.1418 1092.67 88.1418C1102.13 88.1418 1110.8 89.7902 1118.69 93.0868C1120.84 94.0902 1121.91 95.3802 1121.91 96.9568L1122.99 123.832C1122.99 124.405 1122.56 124.763 1121.7 124.907C1120.98 124.907 1120.55 124.62 1120.41 124.047C1118.83 116.307 1115.46 108.997 1110.3 102.117C1105.28 95.2368 1098.05 91.7968 1088.59 91.7968C1081.42 91.7968 1075.83 93.9468 1071.82 98.2468C1067.95 102.547 1066.01 107.993 1066.01 114.587ZM1182.98 164.037H1241.46L1242.96 168.767H1180.4L1182.98 164.037ZM1291.55 222.302C1292.27 222.302 1292.63 222.732 1292.63 223.592C1292.63 224.452 1292.27 224.882 1291.55 224.882C1288.83 224.882 1284.6 224.739 1278.87 224.452C1272.85 224.165 1268.55 224.022 1265.97 224.022C1262.67 224.022 1258.58 224.165 1253.71 224.452C1248.84 224.739 1245.18 224.882 1242.75 224.882C1242.17 224.882 1241.89 224.452 1241.89 223.592C1241.89 222.732 1242.17 222.302 1242.75 222.302C1247.62 222.302 1251.13 221.872 1253.28 221.012C1255.43 220.009 1256.51 218.289 1256.51 215.852C1256.51 213.415 1255.43 210.047 1253.28 205.747L1207.06 109.642L1213.94 99.3218L1172.01 196.502C1170 201.375 1169 205.389 1169 208.542C1169 213.129 1170.79 216.569 1174.38 218.862C1177.96 221.155 1183.12 222.302 1189.86 222.302C1190.57 222.302 1190.93 222.732 1190.93 223.592C1190.93 224.452 1190.57 224.882 1189.86 224.882C1187.28 224.882 1183.55 224.739 1178.68 224.452C1173.23 224.165 1168.5 224.022 1164.49 224.022C1160.76 224.022 1156.32 224.165 1151.16 224.452C1146.57 224.739 1142.84 224.882 1139.98 224.882C1139.4 224.882 1139.12 224.452 1139.12 223.592C1139.12 222.732 1139.4 222.302 1139.98 222.302C1143.99 222.302 1147.36 221.514 1150.08 219.937C1152.95 218.36 1155.67 215.637 1158.25 211.767C1160.83 207.897 1163.77 202.164 1167.07 194.567L1212.86 89.0018C1213 88.5718 1213.51 88.3568 1214.37 88.3568C1215.23 88.2135 1215.73 88.4285 1215.87 89.0018L1267.47 195.427C1272.49 205.89 1276.64 212.985 1279.94 216.712C1283.38 220.439 1287.25 222.302 1291.55 222.302Z" fill="black"/>
<path d="M630.681 363.804C630.681 366.904 630.931 369.154 631.431 370.554C632.031 371.954 633.131 372.904 634.731 373.404C636.431 373.904 639.131 374.154 642.831 374.154C643.031 374.154 643.131 374.454 643.131 375.054C643.131 375.654 643.031 375.954 642.831 375.954C639.631 375.954 637.131 375.904 635.331 375.804L624.531 375.654L614.031 375.804C612.131 375.904 609.531 375.954 606.231 375.954C606.031 375.954 605.931 375.654 605.931 375.054C605.931 374.454 606.031 374.154 606.231 374.154C609.831 374.154 612.481 373.904 614.181 373.404C615.881 372.904 617.031 371.954 617.631 370.554C618.331 369.054 618.681 366.804 618.681 363.804V294.354C618.681 291.354 618.331 289.154 617.631 287.754C617.031 286.354 615.881 285.404 614.181 284.904C612.481 284.304 609.831 284.004 606.231 284.004C606.031 284.004 605.931 283.704 605.931 283.104C605.931 282.504 606.031 282.204 606.231 282.204L614.031 282.354C618.431 282.554 621.931 282.654 624.531 282.654C627.431 282.654 631.081 282.554 635.481 282.354L642.831 282.204C643.031 282.204 643.131 282.504 643.131 283.104C643.131 283.704 643.031 284.004 642.831 284.004C639.231 284.004 636.581 284.304 634.881 284.904C633.281 285.504 632.181 286.554 631.581 288.054C630.981 289.454 630.681 291.654 630.681 294.654V363.804ZM696.526 375.954C696.226 375.954 696.076 375.654 696.076 375.054C696.076 374.454 696.226 374.154 696.526 374.154C699.026 374.154 700.876 373.904 702.076 373.404C703.376 372.804 704.226 371.804 704.626 370.404C705.126 368.904 705.376 366.704 705.376 363.804V340.254C705.376 334.454 704.326 330.204 702.226 327.504C700.126 324.804 696.776 323.454 692.176 323.454C688.676 323.454 685.126 324.504 681.526 326.604C678.026 328.704 675.026 331.504 672.526 335.004L671.926 333.204C680.326 321.804 689.126 316.104 698.326 316.104C703.826 316.104 708.076 317.754 711.076 321.054C714.176 324.254 715.726 328.754 715.726 334.554V363.804C715.726 366.704 715.926 368.904 716.326 370.404C716.826 371.804 717.676 372.804 718.876 373.404C720.176 373.904 722.126 374.154 724.726 374.154C725.026 374.154 725.176 374.454 725.176 375.054C725.176 375.654 725.026 375.954 724.726 375.954C722.326 375.954 720.376 375.904 718.876 375.804L710.626 375.654L702.376 375.804C700.876 375.904 698.926 375.954 696.526 375.954ZM656.176 375.954C655.876 375.954 655.726 375.654 655.726 375.054C655.726 374.454 655.876 374.154 656.176 374.154C658.676 374.154 660.526 373.904 661.726 373.404C663.026 372.804 663.876 371.804 664.276 370.404C664.776 368.904 665.026 366.704 665.026 363.804V334.554C665.026 331.254 664.626 328.904 663.826 327.504C663.126 326.004 661.876 325.254 660.076 325.254C658.376 325.254 655.726 325.954 652.126 327.354H651.826C651.526 327.354 651.276 327.104 651.076 326.604C650.976 326.104 651.076 325.804 651.376 325.704L669.826 316.854L670.726 316.704C671.726 316.704 672.726 317.904 673.726 320.304C674.826 322.604 675.376 325.654 675.376 329.454V363.804C675.376 366.704 675.576 368.904 675.976 370.404C676.476 371.804 677.326 372.804 678.526 373.404C679.826 373.904 681.776 374.154 684.376 374.154C684.676 374.154 684.826 374.454 684.826 375.054C684.826 375.654 684.676 375.954 684.376 375.954C681.976 375.954 680.026 375.904 678.526 375.804L670.276 375.654L661.876 375.804C660.476 375.904 658.576 375.954 656.176 375.954ZM755.705 377.754C751.505 377.754 747.955 376.804 745.055 374.904C742.255 372.904 740.855 369.604 740.855 365.004V330.354C740.855 326.854 740.355 324.604 739.355 323.604C738.455 322.604 736.355 322.104 733.055 322.104C732.755 322.104 732.605 321.704 732.605 320.904C732.605 320.204 732.755 319.854 733.055 319.854C737.455 319.754 741.005 318.704 743.705 316.704C746.405 314.604 748.155 311.754 748.955 308.154C749.055 307.854 749.455 307.704 750.155 307.704C750.855 307.704 751.205 307.854 751.205 308.154V359.904C751.205 367.804 755.055 371.754 762.755 371.754C767.055 371.754 771.005 370.354 774.605 367.554C774.705 367.454 774.855 367.404 775.055 367.404C775.355 367.404 775.605 367.604 775.805 368.004C776.005 368.404 775.955 368.704 775.655 368.904C771.955 372.004 768.555 374.254 765.455 375.654C762.355 377.054 759.105 377.754 755.705 377.754ZM771.155 325.404C764.455 323.904 756.705 323.154 747.905 323.154V319.704C754.205 319.704 762.105 319.204 771.605 318.204C771.905 318.204 772.155 318.554 772.355 319.254C772.555 319.954 772.655 320.754 772.655 321.654C772.655 322.554 772.505 323.454 772.205 324.354C771.905 325.154 771.555 325.504 771.155 325.404ZM811.939 377.754C806.039 377.754 800.939 376.454 796.639 373.854C792.339 371.154 789.089 367.604 786.889 363.204C784.689 358.704 783.589 353.904 783.589 348.804C783.589 342.904 784.989 337.504 787.789 332.604C790.689 327.704 794.589 323.854 799.489 321.054C804.389 318.154 809.839 316.704 815.839 316.704C821.739 316.704 826.239 318.204 829.339 321.204C832.439 324.104 833.989 328.304 833.989 333.804C833.989 336.604 833.389 338.004 832.189 338.004H821.839C822.239 332.104 821.439 327.604 819.439 324.504C817.539 321.304 814.639 319.704 810.739 319.704C805.839 319.704 801.989 321.804 799.189 326.004C796.489 330.104 795.139 335.754 795.139 342.954C795.139 351.754 797.139 358.754 801.139 363.954C805.239 369.154 811.039 371.754 818.539 371.754C821.439 371.754 823.939 371.404 826.039 370.704C828.139 369.904 830.589 368.704 833.389 367.104H833.539C833.839 367.104 834.089 367.304 834.289 367.704C834.589 368.004 834.639 368.304 834.439 368.604C830.839 371.804 827.239 374.154 823.639 375.654C820.039 377.054 816.139 377.754 811.939 377.754ZM791.539 335.904L825.139 335.304V338.004L791.689 338.154L791.539 335.904ZM861.459 333.654C866.859 327.154 871.059 322.704 874.059 320.304C877.159 317.904 879.959 316.704 882.459 316.704C884.759 316.704 886.909 317.404 888.909 318.804C890.909 320.104 891.909 321.704 891.909 323.604C891.909 325.104 891.409 326.404 890.409 327.504C889.409 328.504 888.059 329.004 886.359 329.004C885.259 329.004 884.359 328.804 883.659 328.404C882.959 327.904 882.059 327.204 880.959 326.304C879.959 325.404 879.109 324.754 878.409 324.354C877.809 323.954 876.959 323.754 875.859 323.754C874.459 323.754 872.859 324.504 871.059 326.004C869.359 327.404 866.459 330.504 862.359 335.304L861.459 333.654ZM846.459 375.954C846.159 375.954 846.009 375.654 846.009 375.054C846.009 374.454 846.159 374.154 846.459 374.154C848.959 374.154 850.809 373.904 852.009 373.404C853.309 372.804 854.159 371.804 854.559 370.404C855.059 368.904 855.309 366.704 855.309 363.804V334.554C855.309 331.254 854.909 328.904 854.109 327.504C853.409 326.004 852.159 325.254 850.359 325.254C848.659 325.254 846.009 325.954 842.409 327.354H842.109C841.809 327.354 841.559 327.104 841.359 326.604C841.259 326.104 841.359 325.804 841.659 325.704L860.109 316.854L861.009 316.704C862.009 316.704 863.009 317.904 864.009 320.304C865.109 322.604 865.659 325.654 865.659 329.454V363.804C865.659 366.704 866.009 368.904 866.709 370.404C867.509 371.804 868.909 372.804 870.909 373.404C872.909 373.904 875.909 374.154 879.909 374.154C880.209 374.154 880.359 374.454 880.359 375.054C880.359 375.654 880.209 375.954 879.909 375.954C876.609 375.954 873.959 375.904 871.959 375.804L860.559 375.654L852.159 375.804C850.759 375.904 848.859 375.954 846.459 375.954ZM901.08 375.954C900.88 375.954 900.78 375.654 900.78 375.054C900.78 374.454 900.88 374.154 901.08 374.154C904.78 374.154 907.18 373.504 908.28 372.204C909.48 370.804 910.08 368.004 910.08 363.804L910.23 286.704C910.23 283.104 909.88 280.554 909.18 279.054C908.48 277.454 907.28 276.654 905.58 276.654C903.88 276.654 901.73 277.304 899.13 278.604H898.98C898.58 278.604 898.23 278.354 897.93 277.854C897.73 277.254 897.83 276.904 898.23 276.804L918.33 267.354L918.93 267.204C919.23 267.204 919.58 267.354 919.98 267.654C920.48 267.954 920.73 268.304 920.73 268.704V363.804C920.73 368.004 921.28 370.804 922.38 372.204C923.58 373.504 925.98 374.154 929.58 374.154C929.98 374.154 930.18 374.454 930.18 375.054C930.18 375.654 929.98 375.954 929.58 375.954C927.28 375.954 925.43 375.904 924.03 375.804L915.33 375.654L906.93 375.804C905.53 375.904 903.58 375.954 901.08 375.954ZM969.441 377.904C963.541 377.904 958.341 376.504 953.841 373.704C949.341 370.804 945.841 366.954 943.341 362.154C940.941 357.254 939.741 351.954 939.741 346.254C939.741 339.754 941.341 334.254 944.541 329.754C947.741 325.154 951.841 321.754 956.841 319.554C961.841 317.254 966.941 316.104 972.141 316.104C978.041 316.104 983.241 317.554 987.741 320.454C992.241 323.354 995.691 327.204 998.091 332.004C1000.49 336.704 1001.69 341.704 1001.69 347.004C1001.69 353.104 1000.19 358.504 997.191 363.204C994.291 367.904 990.391 371.554 985.491 374.154C980.591 376.654 975.241 377.904 969.441 377.904ZM973.791 375.054C978.791 375.054 982.641 373.104 985.341 369.204C988.041 365.304 989.391 359.404 989.391 351.504C989.391 345.004 988.391 339.304 986.391 334.404C984.491 329.504 981.841 325.754 978.441 323.154C975.041 320.454 971.241 319.104 967.041 319.104C962.141 319.104 958.341 321.004 955.641 324.804C953.041 328.504 951.741 334.004 951.741 341.304C951.741 347.604 952.691 353.354 954.591 358.554C956.491 363.654 959.091 367.704 962.391 370.704C965.791 373.604 969.591 375.054 973.791 375.054ZM1033.85 418.104C1026.95 418.104 1021.45 416.554 1017.35 413.454C1013.35 410.354 1011.35 406.354 1011.35 401.454C1011.35 392.854 1018.45 384.454 1032.65 376.254L1034.3 378.054C1030.1 380.254 1026.9 382.654 1024.7 385.254C1022.5 387.854 1021.4 391.254 1021.4 395.454C1021.4 401.054 1023.15 405.454 1026.65 408.654C1030.25 411.854 1035.05 413.454 1041.05 413.454C1047.35 413.454 1052.45 411.704 1056.35 408.204C1060.35 404.704 1062.35 400.004 1062.35 394.104C1062.35 390.004 1061.4 387.004 1059.5 385.104C1057.6 383.204 1055.05 382.004 1051.85 381.504C1048.75 381.004 1044.4 380.754 1038.8 380.754C1031.1 380.654 1025.25 379.904 1021.25 378.504C1017.25 377.204 1015.25 374.254 1015.25 369.654C1015.25 366.354 1016.35 363.304 1018.55 360.504C1020.75 357.704 1024.1 354.804 1028.6 351.804L1030.25 353.004C1027.95 354.704 1026.3 356.354 1025.3 357.954C1024.3 359.454 1023.8 361.204 1023.8 363.204C1023.8 366.604 1025.3 368.854 1028.3 369.954C1031.4 371.054 1036.85 371.604 1044.65 371.604C1050.15 371.704 1054.6 372.004 1058 372.504C1061.5 373.004 1064.6 374.354 1067.3 376.554C1070 378.854 1071.35 382.404 1071.35 387.204C1071.35 392.704 1069.6 397.804 1066.1 402.504C1062.6 407.304 1057.95 411.104 1052.15 413.904C1046.45 416.704 1040.35 418.104 1033.85 418.104ZM1037.75 356.004C1033.05 356.004 1028.95 355.104 1025.45 353.304C1021.95 351.504 1019.25 349.104 1017.35 346.104C1015.55 343.004 1014.65 339.704 1014.65 336.204C1014.65 330.504 1017 325.904 1021.7 322.404C1026.5 318.804 1032.4 317.004 1039.4 317.004C1044.2 317.004 1048.3 317.904 1051.7 319.704C1055.2 321.504 1057.8 323.854 1059.5 326.754C1061.3 329.654 1062.2 332.754 1062.2 336.054C1062.2 339.754 1061.1 343.104 1058.9 346.104C1056.8 349.104 1053.85 351.504 1050.05 353.304C1046.35 355.104 1042.25 356.004 1037.75 356.004ZM1040.9 353.604C1043.9 353.604 1046.35 352.454 1048.25 350.154C1050.15 347.854 1051.1 344.354 1051.1 339.654C1051.1 333.454 1049.55 328.554 1046.45 324.954C1043.35 321.254 1039.65 319.404 1035.35 319.404C1032.25 319.404 1029.85 320.504 1028.15 322.704C1026.45 324.804 1025.6 328.054 1025.6 332.454C1025.6 336.754 1026.35 340.504 1027.85 343.704C1029.35 346.904 1031.25 349.354 1033.55 351.054C1035.95 352.754 1038.4 353.604 1040.9 353.604ZM1052.15 323.604C1055.65 321.304 1058.85 319.604 1061.75 318.504C1064.65 317.304 1067.8 316.704 1071.2 316.704C1071.5 316.704 1071.7 317.104 1071.8 317.904C1072 318.604 1072.1 319.404 1072.1 320.304C1072.1 321.604 1071.95 322.954 1071.65 324.354C1071.35 325.654 1071 326.204 1070.6 326.004C1066.9 324.404 1063.45 323.604 1060.25 323.604C1058.15 323.604 1055.8 324.004 1053.2 324.804L1052 328.554L1052.15 323.604ZM1163.85 296.604C1163.85 292.204 1162.7 288.754 1160.4 286.254C1158.1 283.754 1155.1 282.504 1151.4 282.504C1144.3 282.504 1140.75 286.904 1140.75 295.704C1140.75 305.704 1144.75 316.104 1152.75 326.904C1160.85 337.704 1171.05 347.754 1183.35 357.054C1189.75 361.854 1195.7 365.704 1201.2 368.604C1206.8 371.504 1211.4 373.354 1215 374.154C1215.4 374.254 1215.55 374.604 1215.45 375.204C1215.45 375.704 1215.3 375.954 1215 375.954H1196.1C1191.4 375.954 1183.2 371.154 1171.5 361.554C1163.9 355.554 1156.7 348.854 1149.9 341.454C1143.2 334.054 1138.15 327.004 1134.75 320.304C1131.85 314.304 1130.4 308.904 1130.4 304.104C1130.4 299.504 1131.45 295.304 1133.55 291.504C1135.75 287.704 1138.8 284.704 1142.7 282.504C1146.7 280.204 1151.3 279.054 1156.5 279.054C1161.7 279.054 1166.05 280.254 1169.55 282.654C1173.15 285.054 1174.95 288.804 1174.95 293.904C1174.95 297.804 1173.95 301.354 1171.95 304.554C1169.95 307.654 1167.45 310.404 1164.45 312.804C1161.55 315.104 1157.65 317.854 1152.75 321.054C1147.65 324.454 1143.6 327.404 1140.6 329.904C1137.7 332.304 1135.2 335.154 1133.1 338.454C1131.1 341.654 1130.1 345.304 1130.1 349.404C1130.1 353.504 1131.2 357.304 1133.4 360.804C1135.6 364.304 1138.65 367.104 1142.55 369.204C1146.45 371.304 1150.95 372.354 1156.05 372.354C1161.95 372.354 1167.1 370.854 1171.5 367.854C1176 364.754 1179.45 360.604 1181.85 355.404C1184.35 350.104 1185.6 344.304 1185.6 338.004C1185.6 333.704 1184.8 330.554 1183.2 328.554C1181.7 326.454 1178.8 325.404 1174.5 325.404C1174.2 325.404 1174 325.104 1173.9 324.504C1173.9 323.904 1174.1 323.604 1174.5 323.604L1207.2 323.454C1207.5 323.454 1207.65 323.754 1207.65 324.354C1207.65 324.954 1207.5 325.254 1207.2 325.254C1203.9 325.254 1201.45 325.604 1199.85 326.304C1198.25 326.904 1197.1 327.804 1196.4 329.004C1195.7 330.204 1194.95 332.154 1194.15 334.854C1190.75 346.654 1185.65 356.754 1178.85 365.154C1172.05 373.554 1161.7 377.754 1147.8 377.754C1141.4 377.754 1136 376.754 1131.6 374.754C1127.3 372.654 1124.05 369.954 1121.85 366.654C1119.75 363.254 1118.7 359.604 1118.7 355.704C1118.7 351.704 1119.7 348.054 1121.7 344.754C1123.8 341.354 1126.35 338.354 1129.35 335.754C1132.35 333.054 1136.3 329.954 1141.2 326.454C1146.2 322.754 1150.2 319.604 1153.2 317.004C1156.2 314.404 1158.7 311.404 1160.7 308.004C1162.8 304.504 1163.85 300.704 1163.85 296.604ZM1279.58 285.204C1273.38 285.204 1268.53 286.954 1265.03 290.454C1261.53 293.854 1258.93 299.354 1257.23 306.954C1257.13 307.154 1256.78 307.254 1256.18 307.254C1255.68 307.254 1255.43 307.104 1255.43 306.804C1255.83 304.004 1256.28 299.454 1256.78 293.154C1257.28 286.854 1257.53 282.104 1257.53 278.904C1257.53 278.404 1257.83 278.154 1258.43 278.154C1259.03 278.154 1259.33 278.404 1259.33 278.904C1259.33 281.104 1262.08 282.204 1267.58 282.204C1276.18 282.504 1286.23 282.654 1297.73 282.654C1303.63 282.654 1309.88 282.554 1316.48 282.354L1326.68 282.204C1330.38 282.204 1333.08 281.954 1334.78 281.454C1336.48 280.954 1337.58 279.954 1338.08 278.454C1338.18 278.054 1338.48 277.854 1338.98 277.854C1339.58 277.854 1339.88 278.054 1339.88 278.454C1339.58 281.254 1339.23 285.754 1338.83 291.954C1338.53 298.154 1338.38 303.104 1338.38 306.804C1338.38 307.104 1338.08 307.254 1337.48 307.254C1336.98 307.254 1336.73 307.104 1336.73 306.804C1336.03 299.104 1334.03 293.604 1330.73 290.304C1327.43 286.904 1322.53 285.204 1316.03 285.204C1312.33 285.204 1309.68 285.454 1308.08 285.954C1306.48 286.354 1305.38 287.204 1304.78 288.504C1304.18 289.704 1303.88 291.754 1303.88 294.654V363.804C1303.88 366.904 1304.18 369.154 1304.78 370.554C1305.48 371.954 1306.78 372.904 1308.68 373.404C1310.58 373.904 1313.63 374.154 1317.83 374.154C1318.03 374.154 1318.13 374.454 1318.13 375.054C1318.13 375.654 1318.03 375.954 1317.83 375.954C1314.33 375.954 1311.58 375.904 1309.58 375.804L1297.73 375.654L1286.18 375.804C1284.18 375.904 1281.38 375.954 1277.78 375.954C1277.48 375.954 1277.33 375.654 1277.33 375.054C1277.33 374.454 1277.48 374.154 1277.78 374.154C1281.88 374.154 1284.88 373.904 1286.78 373.404C1288.78 372.904 1290.13 371.954 1290.83 370.554C1291.53 369.054 1291.88 366.804 1291.88 363.804V294.354C1291.88 291.554 1291.58 289.554 1290.98 288.354C1290.38 287.054 1289.23 286.204 1287.53 285.804C1285.93 285.404 1283.28 285.204 1279.58 285.204ZM1354.38 333.654C1359.78 327.154 1363.98 322.704 1366.98 320.304C1370.08 317.904 1372.88 316.704 1375.38 316.704C1377.68 316.704 1379.83 317.404 1381.83 318.804C1383.83 320.104 1384.83 321.704 1384.83 323.604C1384.83 325.104 1384.33 326.404 1383.33 327.504C1382.33 328.504 1380.98 329.004 1379.28 329.004C1378.18 329.004 1377.28 328.804 1376.58 328.404C1375.88 327.904 1374.98 327.204 1373.88 326.304C1372.88 325.404 1372.03 324.754 1371.33 324.354C1370.73 323.954 1369.88 323.754 1368.78 323.754C1367.38 323.754 1365.78 324.504 1363.98 326.004C1362.28 327.404 1359.38 330.504 1355.28 335.304L1354.38 333.654ZM1339.38 375.954C1339.08 375.954 1338.93 375.654 1338.93 375.054C1338.93 374.454 1339.08 374.154 1339.38 374.154C1341.88 374.154 1343.73 373.904 1344.93 373.404C1346.23 372.804 1347.08 371.804 1347.48 370.404C1347.98 368.904 1348.23 366.704 1348.23 363.804V334.554C1348.23 331.254 1347.83 328.904 1347.03 327.504C1346.33 326.004 1345.08 325.254 1343.28 325.254C1341.58 325.254 1338.93 325.954 1335.33 327.354H1335.03C1334.73 327.354 1334.48 327.104 1334.28 326.604C1334.18 326.104 1334.28 325.804 1334.58 325.704L1353.03 316.854L1353.93 316.704C1354.93 316.704 1355.93 317.904 1356.93 320.304C1358.03 322.604 1358.58 325.654 1358.58 329.454V363.804C1358.58 366.704 1358.93 368.904 1359.63 370.404C1360.43 371.804 1361.83 372.804 1363.83 373.404C1365.83 373.904 1368.83 374.154 1372.83 374.154C1373.13 374.154 1373.28 374.454 1373.28 375.054C1373.28 375.654 1373.13 375.954 1372.83 375.954C1369.53 375.954 1366.88 375.904 1364.88 375.804L1353.48 375.654L1345.08 375.804C1343.68 375.904 1341.78 375.954 1339.38 375.954ZM1433.5 376.854C1433.1 377.054 1432.65 377.154 1432.15 377.154C1430.55 377.154 1429.1 376.004 1427.8 373.704C1426.5 371.304 1425.85 368.104 1425.85 364.104V336.654C1425.85 330.654 1425.1 326.304 1423.6 323.604C1422.2 320.804 1420.05 319.404 1417.15 319.404C1413.75 319.404 1411.25 320.554 1409.65 322.854C1408.05 325.154 1407 327.804 1406.5 330.804C1406 335.404 1403.85 337.704 1400.05 337.704C1398.15 337.704 1396.7 337.254 1395.7 336.354C1394.8 335.454 1394.35 334.304 1394.35 332.904C1394.35 330.304 1395.95 327.754 1399.15 325.254C1402.35 322.654 1406.2 320.554 1410.7 318.954C1415.3 317.354 1419.35 316.554 1422.85 316.554C1427.05 316.554 1430.3 317.904 1432.6 320.604C1434.9 323.304 1436.05 327.154 1436.05 332.154V359.754C1436.05 366.254 1437.95 369.504 1441.75 369.504C1443.65 369.504 1445.85 368.954 1448.35 367.854H1448.5C1448.9 367.854 1449.15 368.104 1449.25 368.604C1449.45 369.004 1449.35 369.304 1448.95 369.504L1433.5 376.854ZM1405.9 377.004C1402 377.004 1399 376.054 1396.9 374.154C1394.8 372.154 1393.75 369.604 1393.75 366.504C1393.75 363.104 1395.05 360.404 1397.65 358.404C1400.25 356.404 1404.45 354.304 1410.25 352.104L1427.35 345.804L1427.8 347.754L1414.15 353.304C1411.55 354.304 1409.5 355.554 1408 357.054C1406.5 358.454 1405.75 360.254 1405.75 362.454C1405.75 364.854 1406.5 366.854 1408 368.454C1409.6 369.954 1411.6 370.704 1414 370.704C1415.9 370.704 1418.05 370.004 1420.45 368.604L1429.3 363.054L1429.6 365.154L1418.65 372.354C1416.35 374.054 1414.2 375.254 1412.2 375.954C1410.2 376.654 1408.1 377.004 1405.9 377.004ZM1477.74 377.904C1473.54 377.904 1469.64 376.754 1466.04 374.454C1462.44 372.054 1459.59 368.654 1457.49 364.254C1455.39 359.854 1454.34 354.804 1454.34 349.104C1454.34 341.804 1456.09 335.704 1459.59 330.804C1463.09 325.804 1467.44 322.104 1472.64 319.704C1477.94 317.304 1483.24 316.104 1488.54 316.104C1495.04 316.104 1501.19 318.104 1506.99 322.104L1504.59 332.904C1502.19 328.504 1499.44 325.154 1496.34 322.854C1493.34 320.554 1489.59 319.404 1485.09 319.404C1479.09 319.404 1474.34 321.504 1470.84 325.704C1467.44 329.904 1465.74 336.154 1465.74 344.454C1465.74 352.854 1467.49 359.554 1470.99 364.554C1474.49 369.454 1478.94 371.904 1484.34 371.904C1488.34 371.904 1491.94 370.854 1495.14 368.754C1498.44 366.554 1501.84 363.504 1505.34 359.604L1506.69 360.804C1502.09 366.004 1497.59 370.154 1493.19 373.254C1488.79 376.354 1483.64 377.904 1477.74 377.904ZM1512.24 359.154C1512.24 362.654 1512.64 365.204 1513.44 366.804C1514.24 368.304 1515.54 369.054 1517.34 369.054C1519.64 369.054 1522.09 368.404 1524.69 367.104L1524.99 366.954C1525.29 366.954 1525.54 367.204 1525.74 367.704C1525.94 368.204 1525.89 368.554 1525.59 368.754L1507.74 377.304C1507.14 377.504 1506.79 377.604 1506.69 377.604C1505.39 377.604 1504.29 376.354 1503.39 373.854C1502.49 371.354 1502.04 368.004 1502.04 363.804V286.704C1502.04 283.104 1501.69 280.554 1500.99 279.054C1500.29 277.454 1499.09 276.654 1497.39 276.654C1495.99 276.654 1493.84 277.304 1490.94 278.604H1490.64C1490.24 278.604 1489.94 278.404 1489.74 278.004C1489.54 277.504 1489.59 277.154 1489.89 276.954L1509.84 267.354C1510.04 267.254 1510.29 267.204 1510.59 267.204C1510.89 267.204 1511.24 267.354 1511.64 267.654C1512.04 267.954 1512.24 268.304 1512.24 268.704V359.154ZM1559.45 377.754C1553.55 377.754 1548.45 376.454 1544.15 373.854C1539.85 371.154 1536.6 367.604 1534.4 363.204C1532.2 358.704 1531.1 353.904 1531.1 348.804C1531.1 342.904 1532.5 337.504 1535.3 332.604C1538.2 327.704 1542.1 323.854 1547 321.054C1551.9 318.154 1557.35 316.704 1563.35 316.704C1569.25 316.704 1573.75 318.204 1576.85 321.204C1579.95 324.104 1581.5 328.304 1581.5 333.804C1581.5 336.604 1580.9 338.004 1579.7 338.004H1569.35C1569.75 332.104 1568.95 327.604 1566.95 324.504C1565.05 321.304 1562.15 319.704 1558.25 319.704C1553.35 319.704 1549.5 321.804 1546.7 326.004C1544 330.104 1542.65 335.754 1542.65 342.954C1542.65 351.754 1544.65 358.754 1548.65 363.954C1552.75 369.154 1558.55 371.754 1566.05 371.754C1568.95 371.754 1571.45 371.404 1573.55 370.704C1575.65 369.904 1578.1 368.704 1580.9 367.104H1581.05C1581.35 367.104 1581.6 367.304 1581.8 367.704C1582.1 368.004 1582.15 368.304 1581.95 368.604C1578.35 371.804 1574.75 374.154 1571.15 375.654C1567.55 377.054 1563.65 377.754 1559.45 377.754ZM1539.05 335.904L1572.65 335.304V338.004L1539.2 338.154L1539.05 335.904Z" fill="black"/>
<path d="M444.08 233.037C444.05 233.037 444.035 233.007 444.035 232.947C444.035 232.887 444.05 232.857 444.08 232.857C444.44 232.857 444.7 232.832 444.86 232.782C445.03 232.732 445.145 232.637 445.205 232.497C445.265 232.347 445.295 232.122 445.295 231.822V224.877C445.295 224.577 445.265 224.357 445.205 224.217C445.145 224.077 445.03 223.982 444.86 223.932C444.7 223.872 444.44 223.842 444.08 223.842C444.05 223.842 444.035 223.812 444.035 223.752C444.035 223.692 444.05 223.662 444.08 223.662H450.2C450.3 223.662 450.35 223.707 450.35 223.797L450.38 225.687C450.38 225.717 450.35 225.737 450.29 225.747C450.24 225.747 450.21 225.732 450.2 225.702C450.13 225.152 449.935 224.732 449.615 224.442C449.295 224.152 448.875 224.007 448.355 224.007H447.59C447.15 224.007 446.855 224.072 446.705 224.202C446.555 224.332 446.48 224.577 446.48 224.937V231.762C446.48 232.122 446.545 232.367 446.675 232.497C446.815 232.627 447.09 232.692 447.5 232.692H448.49C449.05 232.692 449.515 232.527 449.885 232.197C450.265 231.857 450.525 231.377 450.665 230.757C450.665 230.737 450.685 230.727 450.725 230.727C450.755 230.727 450.78 230.737 450.8 230.757C450.83 230.767 450.845 230.777 450.845 230.787C450.745 231.507 450.695 232.182 450.695 232.812C450.695 232.892 450.68 232.952 450.65 232.992C450.62 233.022 450.56 233.037 450.47 233.037H444.08ZM449.63 229.587C449.63 229.157 449.505 228.842 449.255 228.642C449.015 228.432 448.63 228.327 448.1 228.327H445.91V227.982H448.13C448.64 227.982 449.015 227.897 449.255 227.727C449.495 227.547 449.615 227.272 449.615 226.902C449.615 226.882 449.64 226.872 449.69 226.872C449.75 226.872 449.78 226.882 449.78 226.902L449.765 228.162L449.78 228.837C449.8 229.157 449.81 229.407 449.81 229.587C449.81 229.607 449.78 229.617 449.72 229.617C449.66 229.617 449.63 229.607 449.63 229.587Z" fill="black"/>
<path d="M256.067 416.485C256.067 416.865 256.162 417.2 256.352 417.49C256.542 417.77 256.772 418.015 257.042 418.225C257.312 418.425 257.687 418.67 258.167 418.96C258.667 419.27 259.062 419.54 259.352 419.77C259.652 419.99 259.907 420.265 260.117 420.595C260.327 420.925 260.432 421.315 260.432 421.765C260.432 422.255 260.302 422.7 260.042 423.1C259.792 423.49 259.427 423.8 258.947 424.03C258.477 424.25 257.927 424.36 257.297 424.36C256.897 424.36 256.502 424.31 256.112 424.21C255.722 424.12 255.382 423.985 255.092 423.805C255.042 423.775 255.007 423.74 254.987 423.7C254.967 423.66 254.957 423.6 254.957 423.52L254.807 421.375C254.797 421.335 254.817 421.31 254.867 421.3C254.927 421.29 254.962 421.305 254.972 421.345C255.212 422.105 255.547 422.75 255.977 423.28C256.407 423.81 256.967 424.075 257.657 424.075C258.127 424.075 258.522 423.95 258.842 423.7C259.162 423.44 259.322 423.02 259.322 422.44C259.322 422 259.222 421.615 259.022 421.285C258.822 420.955 258.577 420.68 258.287 420.46C257.997 420.23 257.612 419.97 257.132 419.68C256.662 419.38 256.287 419.125 256.007 418.915C255.737 418.695 255.507 418.43 255.317 418.12C255.127 417.8 255.032 417.43 255.032 417.01C255.032 416.5 255.167 416.065 255.437 415.705C255.717 415.345 256.077 415.08 256.517 414.91C256.967 414.73 257.437 414.64 257.927 414.64C258.587 414.64 259.192 414.755 259.742 414.985C259.892 415.055 259.967 415.145 259.967 415.255L260.042 417.13C260.042 417.17 260.012 417.195 259.952 417.205C259.902 417.205 259.872 417.185 259.862 417.145C259.752 416.605 259.517 416.095 259.157 415.615C258.807 415.135 258.302 414.895 257.642 414.895C257.142 414.895 256.752 415.045 256.472 415.345C256.202 415.645 256.067 416.025 256.067 416.485Z" fill="black"/>
<path d="M254.351 32.8343L254.741 32.8643V40.1543C254.741 40.6743 254.836 41.0593 255.026 41.3093C255.226 41.5593 255.526 41.6843 255.926 41.6843C255.946 41.6843 255.956 41.7143 255.956 41.7743C255.956 41.8343 255.946 41.8643 255.926 41.8643C255.666 41.8643 255.466 41.8593 255.326 41.8493L254.561 41.8343L253.751 41.8493C253.601 41.8593 253.381 41.8643 253.091 41.8643C253.071 41.8643 253.061 41.8343 253.061 41.7743C253.061 41.7143 253.071 41.6843 253.091 41.6843C253.521 41.6843 253.836 41.5593 254.036 41.3093C254.246 41.0593 254.351 40.6743 254.351 40.1543V32.8343ZM261.941 42.0593C261.941 42.0793 261.916 42.0943 261.866 42.1043C261.826 42.1143 261.796 42.1093 261.776 42.0893L254.711 33.7193C254.381 33.3293 254.086 33.0593 253.826 32.9093C253.566 32.7493 253.306 32.6693 253.046 32.6693C253.026 32.6693 253.016 32.6393 253.016 32.5793C253.016 32.5193 253.026 32.4893 253.046 32.4893L253.631 32.5043C253.751 32.5143 253.921 32.5193 254.141 32.5193L254.906 32.5043C255.006 32.4943 255.121 32.4893 255.251 32.4893C255.331 32.4893 255.391 32.5093 255.431 32.5493C255.471 32.5893 255.531 32.6693 255.611 32.7893L255.971 33.2693L261.821 40.3193L261.941 42.0593ZM261.941 42.0593L261.566 41.5943V34.2143C261.566 33.6943 261.471 33.3093 261.281 33.0593C261.091 32.7993 260.796 32.6693 260.396 32.6693C260.376 32.6693 260.366 32.6393 260.366 32.5793C260.366 32.5193 260.376 32.4893 260.396 32.4893L260.996 32.5043C261.296 32.5243 261.551 32.5343 261.761 32.5343C261.941 32.5343 262.201 32.5243 262.541 32.5043L263.171 32.4893C263.191 32.4893 263.201 32.5193 263.201 32.5793C263.201 32.6393 263.191 32.6693 263.171 32.6693C262.351 32.6693 261.941 33.1843 261.941 34.2143V42.0593Z" fill="black"/>
<path d="M62.404 234.009C62.394 234.049 62.339 234.069 62.239 234.069C62.139 234.069 62.084 234.049 62.074 234.009L58.309 225.894C58.119 225.474 57.939 225.194 57.769 225.054C57.609 224.904 57.379 224.829 57.079 224.829C57.049 224.829 57.034 224.799 57.034 224.739C57.034 224.679 57.049 224.649 57.079 224.649L57.544 224.664C57.804 224.684 58.049 224.694 58.279 224.694C58.729 224.694 59.174 224.684 59.614 224.664C59.754 224.654 59.944 224.649 60.184 224.649C60.214 224.649 60.229 224.679 60.229 224.739C60.229 224.799 60.214 224.829 60.184 224.829C59.894 224.829 59.684 224.859 59.554 224.919C59.424 224.979 59.359 225.094 59.359 225.264C59.359 225.404 59.429 225.629 59.569 225.939L62.749 232.734L62.179 233.559L64.069 228.759L64.309 229.104L62.404 234.009ZM70.999 224.649C71.029 224.649 71.044 224.679 71.044 224.739C71.044 224.799 71.029 224.829 70.999 224.829C70.289 224.829 69.749 225.284 69.379 226.194L66.319 234.009C66.309 234.049 66.254 234.069 66.154 234.069C66.054 234.069 65.999 234.049 65.989 234.009L62.224 225.894C62.054 225.524 61.879 225.254 61.699 225.084C61.529 224.914 61.319 224.829 61.069 224.829C61.039 224.829 61.024 224.799 61.024 224.739C61.024 224.679 61.039 224.649 61.069 224.649L61.534 224.664C61.774 224.684 61.994 224.694 62.194 224.694C62.574 224.694 62.924 224.684 63.244 224.664C63.344 224.654 63.479 224.649 63.649 224.649C63.679 224.649 63.694 224.679 63.694 224.739C63.694 224.799 63.679 224.829 63.649 224.829C63.479 224.829 63.354 224.849 63.274 224.889C63.204 224.919 63.169 224.979 63.169 225.069C63.169 225.209 63.274 225.499 63.484 225.939L66.664 232.734L66.094 233.559L68.989 226.194C69.079 225.954 69.124 225.749 69.124 225.579C69.124 225.339 69.034 225.154 68.854 225.024C68.684 224.894 68.429 224.829 68.089 224.829C68.059 224.829 68.044 224.799 68.044 224.739C68.044 224.679 68.059 224.649 68.089 224.649L68.734 224.664C69.074 224.684 69.384 224.694 69.664 224.694C69.874 224.694 70.109 224.684 70.369 224.664L70.999 224.649ZM65.179 226.119C65.319 225.759 65.389 225.484 65.389 225.294C65.389 224.984 65.204 224.829 64.834 224.829C64.814 224.829 64.804 224.799 64.804 224.739C64.804 224.679 64.814 224.649 64.834 224.649L65.134 224.664C65.334 224.684 65.564 224.694 65.824 224.694C66.004 224.694 66.224 224.684 66.484 224.664L67.084 224.649C67.104 224.649 67.114 224.679 67.114 224.739C67.114 224.799 67.104 224.829 67.084 224.829C66.744 224.829 66.449 224.934 66.199 225.144C65.949 225.354 65.729 225.704 65.539 226.194L64.384 229.104L64.144 228.759L65.179 226.119Z" fill="black"/>
</svg>
