<svg width="400" height="399" viewBox="0 0 400 399" fill="none" xmlns="http://www.w3.org/2000/svg">
<path d="M384.73 199.736C384.73 300.972 302.301 383.044 200.614 383.044C98.9282 383.044 16.499 300.972 16.499 199.736C16.499 98.5003 98.9282 16.4287 200.614 16.4287C302.301 16.4287 384.73 98.5003 384.73 199.736Z" stroke="black"/>
<path d="M399.5 199.125C399.5 308.82 310.183 397.749 200 397.749C89.8171 397.749 0.5 308.82 0.5 199.125C0.5 89.4294 89.8171 0.5 200 0.5C310.183 0.5 399.5 89.4294 399.5 199.125Z" stroke="black"/>
<path d="M201.011 20.834L46.7695 300.221L201.011 200.342L355.077 300.221L201.011 20.834Z" fill="black" stroke="black"/>
<path d="M46.7686 300.22L200.615 216.281L355.076 300.22" stroke="black"/>
<line x1="200.115" y1="383.546" x2="200.115" y2="365.165" stroke="black"/>
<line x1="385.231" y1="200.237" x2="366.77" y2="200.237" stroke="black"/>
<line x1="17" y1="199.62" x2="35.4615" y2="199.62" stroke="black"/>
<path d="M197.351 3.97L197.741 4V11.29C197.741 11.81 197.836 12.195 198.026 12.445C198.226 12.695 198.526 12.82 198.926 12.82C198.946 12.82 198.956 12.85 198.956 12.91C198.956 12.97 198.946 13 198.926 13C198.666 13 198.466 12.995 198.326 12.985L197.561 12.97L196.751 12.985C196.601 12.995 196.381 13 196.091 13C196.071 13 196.061 12.97 196.061 12.91C196.061 12.85 196.071 12.82 196.091 12.82C196.521 12.82 196.836 12.695 197.036 12.445C197.246 12.195 197.351 11.81 197.351 11.29V3.97ZM204.941 13.195C204.941 13.215 204.916 13.23 204.866 13.24C204.826 13.25 204.796 13.245 204.776 13.225L197.711 4.855C197.381 4.465 197.086 4.195 196.826 4.045C196.566 3.885 196.306 3.805 196.046 3.805C196.026 3.805 196.016 3.775 196.016 3.715C196.016 3.655 196.026 3.625 196.046 3.625L196.631 3.64C196.751 3.65 196.921 3.655 197.141 3.655L197.906 3.64C198.006 3.63 198.121 3.625 198.251 3.625C198.331 3.625 198.391 3.645 198.431 3.685C198.471 3.725 198.531 3.805 198.611 3.925L198.971 4.405L204.821 11.455L204.941 13.195ZM204.941 13.195L204.566 12.73V5.35C204.566 4.83 204.471 4.445 204.281 4.195C204.091 3.935 203.796 3.805 203.396 3.805C203.376 3.805 203.366 3.775 203.366 3.715C203.366 3.655 203.376 3.625 203.396 3.625L203.996 3.64C204.296 3.66 204.551 3.67 204.761 3.67C204.941 3.67 205.201 3.66 205.541 3.64L206.171 3.625C206.191 3.625 206.201 3.655 206.201 3.715C206.201 3.775 206.191 3.805 206.171 3.805C205.351 3.805 204.941 4.32 204.941 5.35V13.195Z" fill="black"/>
<path d="M198.067 388.305C198.067 388.685 198.162 389.02 198.352 389.31C198.542 389.59 198.772 389.835 199.042 390.045C199.312 390.245 199.687 390.49 200.167 390.78C200.667 391.09 201.062 391.36 201.352 391.59C201.652 391.81 201.907 392.085 202.117 392.415C202.327 392.745 202.432 393.135 202.432 393.585C202.432 394.075 202.302 394.52 202.042 394.92C201.792 395.31 201.427 395.62 200.947 395.85C200.477 396.07 199.927 396.18 199.297 396.18C198.897 396.18 198.502 396.13 198.112 396.03C197.722 395.94 197.382 395.805 197.092 395.625C197.042 395.595 197.007 395.56 196.987 395.52C196.967 395.48 196.957 395.42 196.957 395.34L196.807 393.195C196.797 393.155 196.817 393.13 196.867 393.12C196.927 393.11 196.962 393.125 196.972 393.165C197.212 393.925 197.547 394.57 197.977 395.1C198.407 395.63 198.967 395.895 199.657 395.895C200.127 395.895 200.522 395.77 200.842 395.52C201.162 395.26 201.322 394.84 201.322 394.26C201.322 393.82 201.222 393.435 201.022 393.105C200.822 392.775 200.577 392.5 200.287 392.28C199.997 392.05 199.612 391.79 199.132 391.5C198.662 391.2 198.287 390.945 198.007 390.735C197.737 390.515 197.507 390.25 197.317 389.94C197.127 389.62 197.032 389.25 197.032 388.83C197.032 388.32 197.167 387.885 197.437 387.525C197.717 387.165 198.077 386.9 198.517 386.73C198.967 386.55 199.437 386.46 199.927 386.46C200.587 386.46 201.192 386.575 201.742 386.805C201.892 386.875 201.967 386.965 201.967 387.075L202.042 388.95C202.042 388.99 202.012 389.015 201.952 389.025C201.902 389.025 201.872 389.005 201.862 388.965C201.752 388.425 201.517 387.915 201.157 387.435C200.807 386.955 200.302 386.715 199.642 386.715C199.142 386.715 198.752 386.865 198.472 387.165C198.202 387.465 198.067 387.845 198.067 388.305Z" fill="black"/>
<path d="M387.58 205C387.55 205 387.535 204.97 387.535 204.91C387.535 204.85 387.55 204.82 387.58 204.82C387.94 204.82 388.2 204.795 388.36 204.745C388.53 204.695 388.645 204.6 388.705 204.46C388.765 204.31 388.795 204.085 388.795 203.785V196.84C388.795 196.54 388.765 196.32 388.705 196.18C388.645 196.04 388.53 195.945 388.36 195.895C388.2 195.835 387.94 195.805 387.58 195.805C387.55 195.805 387.535 195.775 387.535 195.715C387.535 195.655 387.55 195.625 387.58 195.625H393.7C393.8 195.625 393.85 195.67 393.85 195.76L393.88 197.65C393.88 197.68 393.85 197.7 393.79 197.71C393.74 197.71 393.71 197.695 393.7 197.665C393.63 197.115 393.435 196.695 393.115 196.405C392.795 196.115 392.375 195.97 391.855 195.97H391.09C390.65 195.97 390.355 196.035 390.205 196.165C390.055 196.295 389.98 196.54 389.98 196.9V203.725C389.98 204.085 390.045 204.33 390.175 204.46C390.315 204.59 390.59 204.655 391 204.655H391.99C392.55 204.655 393.015 204.49 393.385 204.16C393.765 203.82 394.025 203.34 394.165 202.72C394.165 202.7 394.185 202.69 394.225 202.69C394.255 202.69 394.28 202.7 394.3 202.72C394.33 202.73 394.345 202.74 394.345 202.75C394.245 203.47 394.195 204.145 394.195 204.775C394.195 204.855 394.18 204.915 394.15 204.955C394.12 204.985 394.06 205 393.97 205H387.58ZM393.13 201.55C393.13 201.12 393.005 200.805 392.755 200.605C392.515 200.395 392.13 200.29 391.6 200.29H389.41V199.945H391.63C392.14 199.945 392.515 199.86 392.755 199.69C392.995 199.51 393.115 199.235 393.115 198.865C393.115 198.845 393.14 198.835 393.19 198.835C393.25 198.835 393.28 198.845 393.28 198.865L393.265 200.125L393.28 200.8C393.3 201.12 393.31 201.37 393.31 201.55C393.31 201.57 393.28 201.58 393.22 201.58C393.16 201.58 393.13 201.57 393.13 201.55Z" fill="black"/>
<path d="M6.40396 203.985C6.39397 204.025 6.33897 204.045 6.23897 204.045C6.13897 204.045 6.08397 204.025 6.07397 203.985L2.30896 195.87C2.11896 195.45 1.93896 195.17 1.76896 195.03C1.60896 194.88 1.37896 194.805 1.07896 194.805C1.04896 194.805 1.03396 194.775 1.03396 194.715C1.03396 194.655 1.04896 194.625 1.07896 194.625L1.54396 194.64C1.80396 194.66 2.04896 194.67 2.27896 194.67C2.72896 194.67 3.17396 194.66 3.61396 194.64C3.75397 194.63 3.94397 194.625 4.18396 194.625C4.21396 194.625 4.22896 194.655 4.22896 194.715C4.22896 194.775 4.21396 194.805 4.18396 194.805C3.89396 194.805 3.68396 194.835 3.55396 194.895C3.42397 194.955 3.35897 195.07 3.35897 195.24C3.35897 195.38 3.42897 195.605 3.56897 195.915L6.74896 202.71L6.17897 203.535L8.06896 198.735L8.30896 199.08L6.40396 203.985ZM14.999 194.625C15.029 194.625 15.044 194.655 15.044 194.715C15.044 194.775 15.029 194.805 14.999 194.805C14.289 194.805 13.749 195.26 13.379 196.17L10.319 203.985C10.309 204.025 10.254 204.045 10.154 204.045C10.054 204.045 9.99897 204.025 9.98897 203.985L6.22397 195.87C6.05397 195.5 5.87897 195.23 5.69897 195.06C5.52897 194.89 5.31897 194.805 5.06897 194.805C5.03896 194.805 5.02396 194.775 5.02396 194.715C5.02396 194.655 5.03896 194.625 5.06897 194.625L5.53396 194.64C5.77397 194.66 5.99397 194.67 6.19396 194.67C6.57397 194.67 6.92397 194.66 7.24397 194.64C7.34397 194.63 7.47897 194.625 7.64897 194.625C7.67897 194.625 7.69397 194.655 7.69397 194.715C7.69397 194.775 7.67897 194.805 7.64897 194.805C7.47897 194.805 7.35397 194.825 7.27397 194.865C7.20397 194.895 7.16896 194.955 7.16896 195.045C7.16896 195.185 7.27397 195.475 7.48397 195.915L10.664 202.71L10.094 203.535L12.989 196.17C13.079 195.93 13.124 195.725 13.124 195.555C13.124 195.315 13.034 195.13 12.854 195C12.684 194.87 12.429 194.805 12.089 194.805C12.059 194.805 12.044 194.775 12.044 194.715C12.044 194.655 12.059 194.625 12.089 194.625L12.734 194.64C13.074 194.66 13.384 194.67 13.664 194.67C13.874 194.67 14.109 194.66 14.369 194.64L14.999 194.625ZM9.17896 196.095C9.31896 195.735 9.38896 195.46 9.38896 195.27C9.38896 194.96 9.20396 194.805 8.83396 194.805C8.81397 194.805 8.80397 194.775 8.80397 194.715C8.80397 194.655 8.81397 194.625 8.83396 194.625L9.13397 194.64C9.33397 194.66 9.56397 194.67 9.82397 194.67C10.004 194.67 10.224 194.66 10.484 194.64L11.084 194.625C11.104 194.625 11.114 194.655 11.114 194.715C11.114 194.775 11.104 194.805 11.084 194.805C10.744 194.805 10.449 194.91 10.199 195.12C9.94897 195.33 9.72897 195.68 9.53896 196.17L8.38397 199.08L8.14397 198.735L9.17896 196.095Z" fill="black"/>
</svg>
